<?xml version="1.0" encoding="utf-8"?>
<!-- Generator: Adobe Illustrator 27.5.0, SVG Export Plug-In . SVG Version: 6.00 Build 0)  -->
<svg version="1.1" xmlns="http://www.w3.org/2000/svg" xmlns:xlink="http://www.w3.org/1999/xlink" x="0px" y="0px"
	 viewBox="0 0 500 500" style="enable-background:new 0 0 500 500;" xml:space="preserve">
<g id="BACKGROUND">
	<rect style="fill:#F5E8DE;" width="500" height="500"/>
</g>
<g id="OBJECTS">
	<path style="fill:#EACDB8;" d="M82.995,346.623c0.058-9.911,216.34-19.719,235.141-15.871
		c18.801,3.848,99.229,36.56,106.994,44.862c7.765,8.302-255.971,22.382-266.035,19.054
		C149.032,391.339,82.951,354.239,82.995,346.623z"/>
	<g>
		<g>
			<path style="fill:#E7979F;" d="M375.573,369.697l-217.842,10.778l-44.205-28.309c0.818-1.083,1.802-2.587,2.321-4.156
				c2.167-6.665,4.886-19.908,0.033-36.147c-0.531-1.769-1.15-3.582-1.393-3.604l183.154-8.677l11.043,3.548l46.98,15.111
				l23.899,7.694C379.563,325.934,397.504,348.96,375.573,369.697z"/>
			<path style="fill:#FDF9F7;" d="M156.59,374.225l-3.334-2.149l-4.268-2.742l-33.143-21.322c2.169-6.669,4.891-19.916,0.03-36.146
				c0,0,0.01,0.01,0.03,0.02l14.111,7.332l29.39,17.233C159.406,336.451,172.087,360.335,156.59,374.225z"/>
			<path style="fill:#EACDB8;" d="M156.59,374.225l-3.334-2.149c8.728-26.504-36.075-59.265-37.351-60.189l14.111,7.332
				l29.39,17.233C159.406,336.451,172.087,360.335,156.59,374.225z"/>
			<g>
				<defs>
					<path id="SVGID_1_" d="M156.59,374.225l-40.746-26.213c2.169-6.669,4.891-19.916,0.03-36.146l43.531,24.585
						C159.406,336.451,172.087,360.335,156.59,374.225z"/>
				</defs>
				<clipPath id="SVGID_00000000910817291245014840000010174462256440022205_">
					<use xlink:href="#SVGID_1_"  style="overflow:visible;"/>
				</clipPath>
				<g style="clip-path:url(#SVGID_00000000910817291245014840000010174462256440022205_);">
					<path style="fill:#34322D;" d="M165.526,367.491c-1.73-1.179-3.6-2.125-5.428-3.143c-1.792-0.998-3.578-2.008-5.357-3.03
						c-3.626-2.083-7.23-4.204-10.802-6.379c-7.076-4.308-14.037-8.806-20.873-13.486c-3.873-2.652-7.714-5.348-11.512-8.106
						c-0.584-0.424-1.129,0.553-0.554,0.976c6.705,4.938,13.546,9.685,20.518,14.238c6.937,4.53,13.995,8.875,21.164,13.027
						c2.014,1.167,4.04,2.314,6.073,3.447c2.067,1.152,4.112,2.38,6.302,3.281C165.614,368.546,166.042,367.843,165.526,367.491z"/>
					<path style="fill:#34322D;" d="M171.314,363.162c-7.541-4.262-15.11-8.473-22.668-12.704
						c-7.522-4.211-15.053-8.404-22.581-12.603c-4.275-2.385-8.535-4.803-12.856-7.104c-0.494-0.263-0.914,0.471-0.43,0.758
						c7.45,4.414,15.046,8.591,22.58,12.859c7.5,4.248,15.005,8.489,22.511,12.726c3.527,1.991,7.055,3.982,10.588,5.965
						c0.039,0.06,0.088,0.114,0.158,0.156c0.666,0.392,1.347,0.769,2.05,1.089C171.421,364.646,172.063,363.585,171.314,363.162z"/>
					<path style="fill:#34322D;" d="M167.87,355.324c-1.485-1.258-3.427-2.038-5.146-2.933c-1.825-0.95-3.645-1.908-5.462-2.873
						c-3.597-1.911-7.179-3.853-10.744-5.823c-7.13-3.941-14.194-8.001-21.189-12.176c-3.947-2.356-7.877-4.742-11.783-7.165
						c-0.511-0.317-0.968,0.491-0.461,0.812c6.885,4.358,13.843,8.598,20.873,12.717c7.029,4.118,14.126,8.12,21.288,12.003
						c1.985,1.076,3.975,2.144,5.971,3.202c1.033,0.548,2.064,1.102,3.107,1.63c1.015,0.514,2.004,1.082,3.114,1.362
						C167.846,356.183,168.225,355.625,167.87,355.324z"/>
					<path style="fill:#34322D;" d="M168.371,351.312c-3.613-2.251-7.412-4.24-11.115-6.338c-3.711-2.102-7.422-4.204-11.133-6.306
						c-7.386-4.183-14.764-8.379-22.158-12.549c-4.188-2.362-8.377-4.724-12.565-7.086c-0.488-0.275-0.917,0.476-0.43,0.758
						c7.385,4.269,14.772,8.535,22.165,12.79c7.357,4.234,14.714,8.468,22.071,12.702c2.066,1.189,4.132,2.378,6.197,3.566
						c1.459,0.84,2.916,1.693,4.386,2.522c0.024,0.077,0.079,0.144,0.176,0.185c0.611,0.259,1.181,0.572,1.763,0.891
						C168.464,352.852,169.084,351.756,168.371,351.312z"/>
					<path style="fill:#34322D;" d="M169.429,346.868c-0.772-0.741-1.722-1.207-2.645-1.737c-0.943-0.541-1.885-1.082-2.828-1.623
						c-1.849-1.061-3.696-2.126-5.544-3.189c-3.768-2.168-7.537-4.336-11.305-6.503c-7.464-4.294-14.925-8.594-22.388-12.891
						c-4.238-2.44-8.485-4.867-12.732-7.291c-0.53-0.303-0.996,0.515-0.469,0.826c7.457,4.391,14.928,8.757,22.402,13.12
						c7.437,4.342,14.873,8.686,22.308,13.032l6.28,3.67c1.047,0.612,2.092,1.225,3.139,1.838c1.052,0.616,2.072,1.335,3.248,1.681
						C169.423,347.957,169.824,347.247,169.429,346.868z"/>
					<path style="fill:#34322D;" d="M164.226,373.446c-1.593-1.251-3.347-2.316-5.036-3.432c-1.71-1.13-3.428-2.249-5.151-3.36
						c-3.376-2.177-6.759-4.342-10.151-6.494c-6.853-4.347-13.74-8.642-20.676-12.855c-3.923-2.383-7.871-4.723-11.824-7.054
						c-0.489-0.288-0.896,0.475-0.418,0.773c13.715,8.548,27.376,17.188,40.902,26.032c1.922,1.257,3.839,2.52,5.765,3.772
						c1.915,1.244,3.796,2.606,5.798,3.706C164.083,374.89,164.843,373.931,164.226,373.446z"/>
				</g>
			</g>
			<path style="fill:#FDF9F6;" d="M378.343,334.885c-1.173-2.798-2.737-5.372-4.664-7.714c-0.19-0.232-0.451-0.278-0.702-0.226
				c-0.119-0.063-0.254-0.106-0.424-0.104c-6.419,0.1-12.824,0.666-19.24,0.91c-6.414,0.245-19.344,0.489-25.758,0.734
				c-12.827,0.489-25.656,0.958-38.483,1.447c-25.524,0.973-51.048,1.945-76.573,2.917c-14.398,0.549-28.797,1.104-43.195,1.662
				c-1.105,0.043-1.217,1.566-0.358,1.878c5.134,9.252,5.661,20.741,1.79,30.549c-0.552,1.4-1.21,2.762-1.947,4.074
				c-0.745,1.328-1.458,2.665-2.193,3.998c-0.305,0.554,0.435,1.136,0.891,0.678c1.008-1.01,1.881-2.044,2.608-3.278
				c0.707-1.2,1.325-2.458,1.873-3.738c1.106-2.583,1.931-5.276,2.438-8.041c1.011-5.516,0.851-11.27-0.595-16.695
				c-0.698-2.62-1.713-5.154-2.99-7.547c25.154-1.01,50.306-2.038,75.459-3.065c25.524-1.042,51.047-2.105,76.571-3.147
				c7.199-0.294,20.915-0.587,28.114-0.881c7.195-0.294,14.414-0.249,21.598-0.705c0.02-0.001,0.034-0.012,0.053-0.014
				c2.916,3.986,4.984,8.551,5.903,13.412c0.955,5.053,0.555,10.286-1.011,15.174c-0.894,2.789-2.145,5.442-3.678,7.936
				c-0.513,0.835,0.743,1.49,1.297,0.736C381.61,357.011,382.53,344.872,378.343,334.885z"/>
			<path style="fill:#FDF9F6;" d="M372.92,341.255c-0.375-2.159-1.002-4.251-1.831-6.278c-0.048-0.117-0.115-0.201-0.191-0.264
				c0.005-0.297-0.187-0.605-0.573-0.63c-5.503-0.356-11.096-0.241-16.59,0.179c-0.659,0.05-0.903,0.72-0.735,1.189
				c-0.055,0.127-0.079,0.275-0.022,0.45c1.415,4.386,2.018,8.989,1.793,13.592c-0.227,4.658-1.396,9.059-3.226,13.333
				c-0.059,0.137-0.071,0.269-0.062,0.396c-0.277,0.535-0.033,1.354,0.759,1.366c2.616,0.04,5.245-0.167,7.858-0.302
				c1.287-0.067,2.575-0.119,3.864-0.154c1.328-0.036,2.658,0.03,3.984-0.053c0.516-0.032,0.788-0.414,0.844-0.817
				c2.088-3.102,3.357-6.856,4.046-10.505C373.554,348.967,373.581,345.055,372.92,341.255z M370.259,357.09
				c-0.673,1.83-1.583,3.531-2.555,5.213c-1.25,0.117-2.488,0.324-3.74,0.421c-1.285,0.099-2.575,0.156-3.864,0.171
				c-2.272,0.027-4.539-0.078-6.808-0.112c2.753-6.541,3.535-14.06,2.507-21.037c-0.295-2-0.757-3.969-1.362-5.897
				c2.525-0.214,5.056-0.385,7.588-0.493c2.586-0.11,5.162-0.089,7.747-0.08c-0.023,0.134-0.022,0.276,0.041,0.427
				C372.675,342.447,372.783,350.225,370.259,357.09z"/>
			<path style="fill:#FDF9F6;" d="M323.705,348.596c-0.376-0.264-0.952-0.024-1.151,0.346c-0.239,0.443-0.032,0.887,0.346,1.151
				c1.723,1.208,2.618,3.419,2.41,5.49c-0.216,2.149-1.764,3.949-3.767,4.685c-2.1,0.771-4.353,0.363-5.97-1.209
				c-0.214-0.208-0.411-0.438-0.596-0.679c0.57-0.3,1.124-0.63,1.649-1.001c1.19-0.841,2.232-1.941,2.747-3.326
				c0.48-1.29,0.302-2.831-0.818-3.743c-1.027-0.836-2.49-0.966-3.694-0.458c-1.393,0.588-2.277,1.948-2.627,3.379
				c-0.359,1.469-0.166,3.012,0.413,4.4c-4.279,1.601-9.439,1.144-12.88-2.036c0.316-0.383,0.625-0.772,0.917-1.174
				c0.941-1.294,1.769-2.665,2.531-4.072c0.784-1.448,1.544-2.972,1.819-4.61c0.444-2.644-0.727-6.081-3.73-6.559
				c-2.993-0.477-5.318,2.201-6.21,4.767c-0.866,2.492-0.706,5.308,0.202,7.765c0.546,1.474,1.345,2.836,2.354,4.022
				c-1.513,1.571-3.299,2.882-5.379,3.594c-2.353,0.806-5.028,0.869-7.245-0.371c-0.813-0.455-1.554-1.084-2.158-1.822
				c0.39-0.331,0.764-0.679,1.105-1.058c0.888-0.986,1.701-2.175,2.026-3.476c0.348-1.392-0.022-3.005-1.452-3.608
				c-1.376-0.58-2.925,0.014-3.774,1.183c-0.832,1.145-1.048,2.669-0.856,4.047c0.12,0.858,0.406,1.675,0.798,2.439
				c-3.303,2.092-7.65,2.412-11.038,0.378c1.426-2.034,2.577-4.251,3.332-6.626c0.783-2.463,1.295-5.263,0.419-7.774
				c-0.384-1.1-1.035-2.118-2.046-2.736c-1.156-0.707-2.584-0.688-3.794-0.139c-2.501,1.134-3.871,4.018-4.223,6.614
				c-0.346,2.556,0.127,5.159,1.288,7.458c0.69,1.368,1.655,2.622,2.822,3.632c-0.025,0.031-0.048,0.064-0.073,0.095
				c-1.657,1.997-3.586,3.851-5.77,5.264c-2.131,1.379-4.68,2.303-7.234,1.731c-1.451-0.325-2.738-1.192-3.482-2.412
				c0.318-0.342,0.629-0.69,0.93-1.049c0.809-0.964,1.659-2.066,1.645-3.394c-0.014-1.356-1.348-2.177-2.581-1.625
				c-1.285,0.575-1.923,2.049-2.05,3.376c-0.078,0.809,0.023,1.588,0.258,2.314c-0.075,0.069-0.152,0.139-0.226,0.207
				c-0.946,0.868-1.964,1.659-3.079,2.3c-2.063,1.186-4.554,1.773-6.817,0.777c-2.007-0.884-3.478-2.692-4.288-4.698
				c-0.059-0.147-0.104-0.297-0.156-0.446c1.257-1.487,2.373-3.095,3.293-4.806c0.7-1.303,1.284-2.665,1.762-4.065
				c0.49-1.433,0.956-2.969,1.034-4.489c0.074-1.44-0.485-2.974-1.849-3.642c-1.313-0.643-2.625-0.051-3.383,1.109
				c-0.358,0.548-0.578,1.179-0.79,1.794c-0.298,0.862-0.583,1.729-0.854,2.599c-0.52,1.669-0.971,3.367-1.204,5.102
				c-0.281,2.087-0.228,4.186,0.307,6.181c-0.575,0.623-1.168,1.228-1.8,1.793c-0.918,0.82-1.895,1.585-2.935,2.246
				c-1.153,0.734-2.475,1.39-3.872,1.394c-2.314,0.007-3.665-2.159-3.784-4.266c-0.147-2.603,1.369-5.014,2.654-7.159
				c0.445-0.744-0.714-1.348-1.177-0.634c-1.677,2.584-3.41,5.464-2.898,8.675c0.44,2.755,2.556,5.084,5.503,4.89
				c3.077-0.203,5.836-2.513,7.977-4.551c0.291-0.277,0.561-0.577,0.84-0.868c0.161,0.388,0.339,0.772,0.545,1.148
				c1.296,2.362,3.506,4.326,6.225,4.773c3.079,0.507,5.97-0.807,8.329-2.698c0.471-0.377,0.918-0.78,1.353-1.193
				c0.766,1.152,1.916,2.06,3.263,2.559c2.962,1.097,6.176,0.284,8.798-1.293c2.599-1.564,4.917-3.762,6.796-6.133
				c0.403,0.26,0.818,0.501,1.254,0.7c2.36,1.079,5.022,1.269,7.544,0.718c1.454-0.318,2.863-0.909,4.125-1.723
				c0.843,1.063,1.932,1.938,3.151,2.52c2.755,1.314,5.987,1.041,8.741-0.123c1.988-0.84,3.695-2.125,5.172-3.653
				c0.448,0.416,0.922,0.805,1.431,1.154c2.397,1.646,5.407,2.343,8.291,2.204c1.715-0.083,3.426-0.455,5.033-1.086
				c0.423,0.614,0.925,1.17,1.503,1.632c2.215,1.773,5.107,2.061,7.681,0.911c2.529-1.13,4.237-3.54,4.379-6.311
				C327.129,352.69,325.85,350.1,323.705,348.596z M234.184,352.56c0.267-1.495,0.667-2.962,1.11-4.413
				c0.355-1.165,0.617-2.548,1.307-3.574c0.72-1.069,2.053-0.713,2.577,0.365c0.591,1.219,0.119,2.747-0.225,3.969
				c-0.96,3.402-2.637,6.586-4.845,9.345C233.756,356.384,233.848,354.446,234.184,352.56z M251.634,357.169
				c1.154-0.246,0.222,1.644-0.032,1.999c-0.366,0.511-0.804,0.993-1.265,1.453c-0.037-0.203-0.076-0.405-0.085-0.619
				C250.212,359.09,250.537,357.402,251.634,357.169z M264.983,345.896c0.419-2.024,1.629-4.524,3.83-5.052
				c2.161-0.519,3.317,1.634,3.595,3.426c0.351,2.265-0.295,4.661-1.112,6.759c-0.712,1.827-1.678,3.553-2.824,5.146
				C265.605,353.736,264.227,349.547,264.983,345.896z M282.468,350.623c0.863-0.629,2.056-0.276,2.056,0.877
				c0,1.056-0.653,2.098-1.287,2.9c-0.379,0.48-0.805,0.92-1.263,1.323c-0.305-0.648-0.51-1.339-0.555-2.06
				C281.354,352.615,281.556,351.288,282.468,350.623z M296.878,343.637c0.866-1.823,3.12-4.004,5.217-2.541
				c2.156,1.504,1.699,4.518,0.796,6.581c-1.054,2.409-2.481,4.784-4.151,6.824C296.308,351.543,295.197,347.177,296.878,343.637z
				 M314.05,352.963c0.408-0.96,1.191-1.754,2.285-1.768c0.944-0.012,1.74,0.638,1.664,1.63c-0.084,1.1-0.944,2.116-1.753,2.795
				c-0.625,0.525-1.348,0.971-2.091,1.349C313.62,355.695,313.502,354.251,314.05,352.963z"/>
			<path style="fill:#FDF9F6;" d="M170.13,335.352c-1.325-0.974-2.952-1.615-4.417-2.357c-1.416-0.717-2.83-1.436-4.247-2.15
				c-2.909-1.465-5.857-2.856-8.739-4.375c-5.683-2.994-11.274-6.159-16.889-9.278c-3.209-1.782-6.409-3.579-9.626-5.345
				c-0.96-0.526-1.816,0.969-0.843,1.48c5.763,3.029,11.554,6.007,17.341,8.991c5.79,2.986,11.472,6.133,17.105,9.405
				c1.587,0.922,3.187,1.821,4.782,2.728c1.573,0.894,3.14,1.97,4.843,2.594c0.43,0.158,0.923-0.157,1.082-0.546
				C170.706,336.044,170.506,335.629,170.13,335.352z"/>
			<g>
				<path style="fill:#FDF9F6;" d="M197.245,347.482c-0.357-2.171-0.84-4.4-1.677-6.445c0.079-0.123,0.128-0.261,0.125-0.401
					c-0.013-0.505-0.675-0.982-1.13-0.619c-0.207,0.165-0.723,0.111-0.971,0.12c-0.336,0.012-0.67,0.019-1.007,0.013
					c-0.672-0.012-1.343-0.022-2.015-0.026c-1.343-0.007-2.684,0.008-4.027,0.034c-0.146,0.003-0.26,0.05-0.358,0.112
					c-0.407,0.103-0.749,0.471-0.599,0.99c2.173,7.525,2.32,15.557,0.402,23.152c-0.261,1.034-0.559,2.059-0.894,3.072
					c-0.354,1.07-0.882,2.124-1.06,3.237c-0.065,0.404,0.154,0.671,0.438,0.754c0.108,0.262,0.344,0.466,0.713,0.455
					c1.393-0.04,2.784-0.103,4.177-0.16c0.697-0.029,1.394-0.005,2.091,0.011c0.32,0.007,0.646,0.036,0.965,0.02
					c0.394-0.019,0.739-0.181,1.114-0.283c0.263-0.072,0.398-0.29,0.422-0.521c0.11-0.003,0.221-0.027,0.325-0.084
					c0.815-0.445,1.061-1.808,1.345-2.632c0.32-0.931,0.607-1.873,0.855-2.826c0.514-1.978,0.88-3.994,1.097-6.026
					C198,355.451,197.895,351.431,197.245,347.482z M195.066,364.226c-0.27,1.06-0.581,2.111-0.931,3.148
					c-0.175,0.517-0.359,1.032-0.557,1.54c-0.178,0.457-0.374,0.876-0.332,1.347c-0.286-0.076-0.568-0.159-0.873-0.159
					c-0.319-0.001-0.644,0.047-0.963,0.071c-0.695,0.053-1.39,0.113-2.087,0.121c-1.195,0.013-2.388,0.028-3.583,0.051
					c0.298-0.634,0.509-1.319,0.732-1.974c0.319-0.94,0.606-1.891,0.861-2.851c0.52-1.955,0.909-3.945,1.164-5.952
					c0.509-4.009,0.552-8.073,0.028-12.083c-0.261-2-0.656-3.978-1.173-5.926c1.084-0.04,2.168-0.08,3.252-0.143
					c0.671-0.039,1.341-0.084,2.011-0.132c0.308-0.022,0.614-0.033,0.922-0.039c0.169-0.003,0.456-0.034,0.704-0.02
					c0.491,1.861,1.046,3.693,1.405,5.588c0.369,1.946,0.584,3.92,0.663,5.898C196.463,356.582,196.023,360.476,195.066,364.226z"/>
				<path style="fill:#FDF9F6;" d="M203.606,347.165c-0.367-2.188-0.935-4.339-1.676-6.43c-0.367-1.035-2.031-0.597-1.655,0.434
					c2.594,7.106,3.059,14.898,1.189,22.238c-0.261,1.022-0.576,2.03-0.931,3.023c-0.37,1.036-0.876,2.004-1.272,3.028
					c-0.389,1.005,1.289,1.691,1.759,0.716c0.425-0.883,0.699-1.86,1.007-2.789c0.309-0.932,0.576-1.875,0.82-2.826
					c0.486-1.899,0.837-3.826,1.064-5.773C204.361,354.93,204.249,350.993,203.606,347.165z"/>
			</g>
			<path style="fill:#FDF9F6;" d="M348.61,341.741c-0.189-2.172-0.546-4.328-1.072-6.444c-0.276-1.111-1.983-0.659-1.716,0.45
				c1.718,7.126,1.426,14.678-0.815,21.657c-0.319,0.995-0.674,1.98-1.076,2.944c-0.38,0.913-1.086,1.927-1.138,2.921
				c-0.039,0.747,0.87,0.975,1.359,0.563c0.672-0.566,0.985-1.69,1.32-2.485c0.382-0.908,0.737-1.827,1.056-2.759
				c0.61-1.784,1.095-3.611,1.452-5.462C348.7,349.388,348.939,345.536,348.61,341.741z"/>
		</g>
		<polygon style="fill:#34322D;" points="349.56,316.277 338.553,329.69 145.981,325.967 308.685,303.13 		"/>
		<g>
			<path style="fill:#294A91;" d="M145.976,325.965l189.35-4.565c0,0,9.791-18.119,0.208-36.374l-18.296-11.142l-156.87,1.747
				l-16.352,13.538C144.016,289.169,132.175,305.901,145.976,325.965z"/>
			<path style="fill:#D8BB30;" d="M306.161,308.164c-0.017-0.888,0.01-1.762-0.06-2.65c-0.14-1.77-0.279-3.541-0.419-5.311
				c-0.007-0.087-0.032-0.168-0.055-0.249c0.404-0.629,0.177-1.646-0.771-1.621c-16.709,0.444-33.42,0.784-50.131,1.142
				c-16.618,0.356-33.231,0.439-49.851,0.229c-9.361-0.118-18.718-0.361-28.078-0.505c-0.897-0.014-1.223,0.905-0.955,1.53
				c-0.155,1.884-0.184,3.771-0.166,5.661c0.009,0.939,0.032,1.878,0.055,2.817c0.012,0.485,0.005,0.97,0.012,1.455
				c0.003,0.209,0.014,0.401,0.05,0.579c-0.027,0.458,0.248,0.929,0.851,0.96c4.215,0.217,8.443,0.133,12.662,0.143
				c4.131,0.01,8.261-0.028,12.391-0.02c8.393,0.015,16.786,0.125,25.18,0.166c16.694,0.081,33.381-0.039,50.071-0.439
				c9.396-0.225,18.797-0.429,28.188-0.826c0.12-0.005,0.22-0.041,0.318-0.078c0.283,0.052,0.596-0.073,0.704-0.386
				C306.428,309.97,306.176,308.989,306.161,308.164z M255.003,310.849c-16.7,0.301-33.393,0.543-50.095,0.354
				c-4.678-0.053-9.35-0.245-14.026-0.397c-4.502-0.146-9.007-0.425-13.511-0.442c-0.059-0.433-0.117-0.866-0.146-1.303
				c-0.059-0.905-0.074-1.807-0.058-2.713c0.031-1.69,0.196-3.375,0.401-5.053c16.428,0.055,32.857-0.276,49.286-0.307
				c16.611-0.031,33.222,0.028,49.833-0.117c9.073-0.079,18.145-0.238,27.216-0.416c0.124,1.696,0.249,3.391,0.373,5.087
				c0.066,0.898,0.21,1.766,0.339,2.656c0.05,0.341,0.064,0.715,0.086,1.09C288.136,309.932,271.58,310.55,255.003,310.849z"/>
			<path style="fill:#D8BB30;" d="M333.317,285.368c-12.236-0.032-24.487,0.394-36.721,0.608l-36.721,0.642
				c-24.356,0.426-48.71,0.913-73.065,1.4c-6.869,0.137-13.738,0.268-20.609,0.351c-6.861,0.083-13.761-0.21-20.611,0.166
				c-0.935,0.051-0.914,1.446,0.023,1.468c6.115,0.143,12.243-0.321,18.358-0.44c6.12-0.119,12.24-0.22,18.361-0.291l36.724-0.424
				c24.358-0.281,48.714-0.642,73.071-0.984c6.87-0.096,13.74-0.193,20.61-0.289c6.867-0.096,13.745-0.089,20.609-0.324
				C334.547,287.209,334.519,285.371,333.317,285.368z"/>
			<path style="fill:#D8BB30;" d="M332.674,293.547c-0.55-2.5-1.376-4.927-2.43-7.26c-0.481-1.064-2.056-0.16-1.577,0.896
				c3.534,7.798,4.043,16.85,1.562,25.029c-0.353,1.164-0.769,2.305-1.257,3.418c-0.487,1.11-1.19,2.176-1.565,3.326
				c-0.276,0.849,0.984,1.631,1.569,0.9c0.712-0.889,1.136-2.024,1.57-3.07c0.426-1.027,0.808-2.069,1.152-3.126
				c0.698-2.141,1.19-4.343,1.49-6.574C333.795,302.574,333.654,297.998,332.674,293.547z"/>
			<path style="fill:#D8BB30;" d="M323.737,294.103c-0.263-1.165-0.573-2.321-0.922-3.463c-0.342-1.117-0.63-2.488-1.305-3.455
				c-0.431-0.618-1.716-0.52-1.607,0.424c0.147,1.275,0.749,2.526,1.106,3.76c0.367,1.267,0.676,2.549,0.947,3.84
				c0.543,2.582,0.875,5.201,0.991,7.838c0.116,2.635,0.024,5.279-0.279,7.899c-0.151,1.311-0.366,2.615-0.629,3.908
				c-0.132,0.646-0.279,1.288-0.442,1.928c-0.161,0.633-0.389,1.256-0.409,1.913c-0.026,0.895,1.216,1.179,1.647,0.435
				c0.518-0.894,0.659-2.072,0.88-3.07c0.223-1.006,0.417-2.017,0.578-3.035c0.334-2.116,0.543-4.252,0.611-6.392
				C325.038,302.44,324.662,298.194,323.737,294.103z"/>
			<path style="fill:#D8BB30;" d="M155.422,322.284c-1.172-1.907-2.386-3.724-3.318-5.771c-0.904-1.986-1.589-4.072-2.075-6.199
				c-0.987-4.314-1.09-8.817-0.254-13.165c0.475-2.469,1.26-4.858,2.307-7.143c0.457-0.998-1.039-1.858-1.495-0.849
				c-3.822,8.461-3.913,18.637-0.472,27.237c0.973,2.433,2.186,4.954,3.884,6.972C154.657,324.149,155.95,323.142,155.422,322.284z"
				/>
			<path style="fill:#D8BB30;" d="M161.935,320.75c-2.087-4.836-3.549-9.863-3.751-15.154c-0.199-5.202,0.607-10.442,1.989-15.448
				c0.327-1.184-1.524-1.673-1.846-0.484c-2.19,8.075-1.786,16.708-0.114,24.846c0.487,2.371,1.081,4.701,1.938,6.966
				C160.644,322.784,162.495,322.047,161.935,320.75z"/>
		</g>
		<g>
			<path style="fill:#B22632;" d="M155.34,280.691c-3.807-14.78-0.624-27.253-0.624-27.253h187.404c0,0,6.157,14.584,0,27.253
				H155.34z"/>
			<g>
				<path style="fill:#34322D;" d="M338.315,262.794c-0.093-0.785-0.215-1.565-0.314-2.349c-0.091-0.717-0.133-1.643-0.531-2.251
					c-0.078-0.119-0.182-0.199-0.293-0.256c-0.145-0.156-0.346-0.268-0.617-0.282c-5.763-0.31-11.553-0.18-17.322-0.184
					c-5.774-0.004-11.548-0.013-17.322-0.011c-11.43,0.005-22.86,0.001-34.29,0.033c-11.548,0.032-23.096,0.074-34.644,0.232
					c-11.429,0.156-22.859,0.362-34.29,0.383c-4.846,0.009-9.697,0.041-14.548,0.049c-0.322-0.365-0.971-0.368-1.352-0.001
					c-7.667,0.004-15.335-0.063-22.986-0.397c-0.161-0.007-0.288,0.04-0.399,0.107c-0.305-0.057-0.64,0.082-0.779,0.504
					c-0.218,0.664-0.216,1.406-0.286,2.099c-0.069,0.691-0.162,1.378-0.244,2.068c-0.174,1.468-0.251,2.953-0.22,4.432
					c0.061,2.886,0.527,5.784,1.462,8.504c0.088,0.256,0.252,0.42,0.442,0.512c0.1,0.403,0.395,0.739,0.906,0.723
					c5.713-0.177,11.416-0.368,17.132-0.394c5.71-0.027,11.421-0.025,17.132-0.03c11.422-0.01,22.842,0.142,34.263,0.236
					c22.726,0.187,45.45,0.307,68.177,0.304c6.41-0.001,12.82,0.005,19.229-0.011c3.147-0.008,6.293-0.016,9.44-0.024
					c1.756-0.005,3.515,0.01,5.273-0.003c1.357,0.308,2.785,0.391,4.044-0.02c0.329,0.53,1.19,0.628,1.51-0.213
					c1.11-2.92,1.567-6.039,1.653-9.168C338.585,265.854,338.495,264.315,338.315,262.794z M317.116,259.718
					c2.389-0.002,4.782,0.016,7.175,0.026c-0.02,0.009-0.042,0.016-0.062,0.026c-3.7,1.705-7.691,4.766-11.963,3.593
					c-0.922-0.253-1.797-0.704-2.498-1.383c-0.665-0.644-1.021-1.414-1.365-2.259C311.308,259.719,314.212,259.72,317.116,259.718z
					 M182.458,259.066c-0.242,1.747-1.614,3.108-3.193,3.644c-2.164,0.735-4.538,0.138-6.574-0.744
					c-1.957-0.848-3.891-1.964-5.89-2.753C172.017,259.092,177.237,259.062,182.458,259.066z M179.919,275.065
					c-3.437-0.016-6.87-0.077-10.303-0.158c2.046-0.648,4.026-1.534,5.905-2.666c1.816-1.095,3.901-2.497,6.055-1.557
					c0.862,0.376,1.627,1.051,2.13,1.868c0.497,0.808,0.602,1.618,0.725,2.517C182.927,275.064,181.423,275.072,179.919,275.065z
					 M318.72,274.563c-3.644-0.009-7.288-0.009-10.931-0.01c2.047-3.011,5.65-5.063,9.236-4.559
					c3.406,0.479,6.172,2.727,9.095,4.526C323.65,274.535,321.18,274.569,318.72,274.563z M337.372,267.258
					c-0.117,2.451-0.694,4.859-1.511,7.163c-0.06-0.006-0.114-0.024-0.18-0.017c-0.601,0.066-1.172,0.164-1.747,0.231
					c-0.876-0.036-1.751-0.08-2.629-0.096c-0.793-0.154-1.576-0.394-2.329-0.667c-2.184-0.791-4.174-2.044-6.248-3.09
					c-1.925-0.971-3.953-1.863-6.096-2.118c-1.955-0.232-3.888,0.069-5.699,0.864c-2.087,0.917-3.828,2.53-4.909,4.602
					c-0.076,0.146-0.101,0.286-0.103,0.419c-1.444,0-2.888-0.004-4.332-0.004c-11.421-0.002-22.842,0.001-34.263,0.04
					c-22.726,0.078-45.451,0.406-68.177,0.494c-4.346,0.017-8.691,0-13.037-0.01c0.217-1.609-0.653-3.358-1.682-4.484
					c-1.145-1.252-2.803-2.077-4.481-2.022c-2.028,0.066-3.778,1.227-5.474,2.26c-1.815,1.106-3.736,1.99-5.754,2.613
					c-2.3,0.709-4.679,1.12-7.077,1.192c-0.084,0.003-0.151,0.028-0.22,0.052c-0.19-0.006-0.38-0.01-0.57-0.016
					c-0.845-2.491-1.449-5.059-1.662-7.696c-0.108-1.345-0.126-2.695-0.04-4.042c0.047-0.739,0.119-1.46,0.289-2.18
					c0.105-0.444,0.263-0.88,0.389-1.321c0.028-0.001,0.056-0.001,0.085-0.003c0.122,0.23,0.357,0.394,0.673,0.322
					c5.015-1.134,9.395,3.097,14.014,4.331c2.14,0.572,4.532,0.608,6.515-0.522c1.666-0.95,2.874-2.545,3.17-4.49
					c3.389,0.006,6.778,0.016,10.164,0.015c11.432-0.003,22.86,0.165,34.29,0.323c22.977,0.318,45.955,0.31,68.934,0.321
					c3.094,0.001,6.188-0.002,9.282-0.003c-0.014,0.061-0.03,0.122-0.026,0.189c0.116,1.874,1.536,3.457,3.04,4.352
					c1.777,1.058,3.828,1.201,5.813,0.828c4.506-0.845,8.145-4.117,12.596-5.175c0.346-0.082,0.699-0.128,1.05-0.189
					c1.812-0.018,3.622-0.062,5.43-0.135c0.43,0.052,0.862,0.097,1.287,0.178c0.099,0.019,0.189,0.012,0.273-0.004
					c0.096,0.274,0.201,0.549,0.284,0.813c0.217,0.69,0.37,1.393,0.474,2.111C337.397,264.202,337.445,265.731,337.372,267.258z"/>
				<path style="fill:#34322D;" d="M166.823,263.974c-0.749-0.476-1.727-0.528-2.502-0.092c-0.409,0.23-0.789,0.622-0.981,1.066
					c-0.139,0.321-0.206,0.645-0.203,0.969c-0.102,0.825,0.204,1.703,0.814,2.24c0.381,0.336,0.804,0.563,1.303,0.63
					c0.49,0.065,0.952-0.028,1.395-0.256c0.829-0.426,1.345-1.341,1.413-2.28C168.129,265.317,167.567,264.447,166.823,263.974z"/>
				<path style="fill:#34322D;" d="M333.126,266.548c-0.148-0.517-0.47-0.946-0.915-1.224c-0.227-0.141-0.475-0.225-0.731-0.263
					c-0.021-0.007-0.038-0.023-0.061-0.027c-0.479-0.088-0.924-0.023-1.364,0.193c-0.377,0.184-0.723,0.532-0.913,0.917
					c-0.418,0.848-0.26,1.937,0.402,2.607c0.681,0.69,1.741,0.796,2.567,0.332C332.953,268.61,333.399,267.505,333.126,266.548z"/>
				<path style="fill:#34322D;" d="M296.809,264.382c-3.337-0.375-6.681-0.294-10.034-0.294H276.74
					c-6.69,0-13.379,0.102-20.069,0.191c-13.379,0.177-26.757,0.203-40.137,0.191c-7.526-0.007-15.053-0.1-22.577-0.255
					c-1.18-0.024-1.18,1.927,0,1.903c13.376-0.275,26.759-0.313,40.137-0.254c13.38,0.059,26.758,0.336,40.138,0.38
					c3.716,0.012,7.433,0,11.149,0c3.812,0,7.635,0.132,11.428-0.294C297.778,265.841,297.779,264.491,296.809,264.382z"/>
				<path style="fill:#34322D;" d="M298.659,269.857c-6.857-0.414-13.771-0.174-20.639-0.169c-6.787,0.006-13.573,0.056-20.36,0.106
					c-13.665,0.101-27.333,0.196-40.998,0.15c-7.718-0.026-15.432-0.236-23.149-0.269c-1.432-0.006-1.433,2.317,0,2.311
					c6.88-0.03,13.758-0.238,20.639-0.261c6.787-0.023,13.573,0.008,20.36,0.025c13.666,0.035,27.332,0.21,40.998,0.221
					c3.812,0.003,7.623,0.006,11.435,0.009c3.907,0.003,7.812,0.059,11.714-0.176C299.865,271.733,299.866,269.93,298.659,269.857z"
					/>
			</g>
		</g>
		<g>
			<g>
				<path style="fill:#34322D;" d="M373.756,245.282l-56.188,16.117l-191.699-9.352c-12.458-17.775,0-36.224,0-36.224l54.121-16.537
					l190.284,8.268c-0.685,1.448-1.238,2.896-1.68,4.344c-3.681,11.96,0.298,23.501,3.04,29.371
					C372.805,243.801,373.756,245.282,373.756,245.282z"/>
				<path style="fill:#FDF9F7;" d="M371.633,241.269l-46.007,12.546l-9.219,2.509c0,0-8.147-11.319-0.453-29.923l38.534-10.612
					l14.105-3.891C364.912,223.859,368.892,235.4,371.633,241.269z"/>
				<path style="fill:#EACDB8;" d="M368.593,211.899c-12.193,7.727-38.895,18.444-41.375,36.622c-0.245,1.8-1.238,3.482-1.592,5.295
					l-9.219,2.509c0,0-8.147-11.319-0.453-29.923L368.593,211.899z"/>
				<g>
					<defs>
						<path id="SVGID_00000117667154467749555230000009509169161354123948_" d="M371.633,241.269l-55.226,15.056
							c0,0-8.145-11.323-0.452-29.927l52.638-14.5C364.912,223.859,368.892,235.4,371.633,241.269z"/>
					</defs>
					<clipPath id="SVGID_00000128480787998694185320000005810265453083625888_">
						<use xlink:href="#SVGID_00000117667154467749555230000009509169161354123948_"  style="overflow:visible;"/>
					</clipPath>
					<g style="clip-path:url(#SVGID_00000128480787998694185320000005810265453083625888_);">
						<path style="fill:#34322D;" d="M381.211,212.128c-0.284,0.014-0.565,0.049-0.847,0.08c-0.206,0.023-0.351,0.119-0.444,0.245
							c-8.81,2.404-17.666,4.643-26.48,7.035c-9.188,2.494-18.37,5.009-27.536,7.587c-5.174,1.456-10.341,2.935-15.502,4.436
							c-0.855,0.249-0.501,1.594,0.35,1.337c9.115-2.753,18.248-5.451,27.415-8.028c9.166-2.577,18.355-5.069,27.571-7.462
							c5.201-1.351,10.404-2.724,15.64-3.935C382.098,213.257,381.964,212.091,381.211,212.128z"/>
						<path style="fill:#34322D;" d="M382.797,214.691l-1.327,0.273c-0.091,0.019-0.155,0.069-0.205,0.13
							c-1.997,0.561-3.974,1.264-5.952,1.852c-2.453,0.73-4.905,1.463-7.361,2.183c-4.955,1.452-9.908,2.913-14.86,4.377
							c-9.901,2.927-19.82,5.793-29.732,8.68c-5.614,1.635-11.218,3.302-16.817,4.986c-0.869,0.261-0.505,1.636,0.357,1.362
							c9.846-3.13,19.697-6.243,29.554-9.337c9.853-3.093,19.774-5.972,29.695-8.839c2.809-0.812,5.622-1.611,8.438-2.399
							c1.364-0.382,2.728-0.762,4.096-1.13c1.448-0.389,2.945-0.704,4.364-1.188C383.644,215.438,383.42,214.562,382.797,214.691z"
							/>
						<path style="fill:#34322D;" d="M379.604,219.461c-0.172,0.116-0.258,0.288-0.286,0.467
							c-9.716,3.081-19.438,6.135-29.184,9.123c-10.013,3.07-20.051,6.054-30.083,9.06c-5.676,1.701-11.354,3.396-17.02,5.128
							c-0.86,0.263-0.508,1.616,0.355,1.354c10.068-3.057,20.108-6.206,30.155-9.328c10.001-3.108,20.026-6.149,30.065-9.13
							c5.679-1.686,11.368-3.336,17.055-4.996c0.301-0.088,0.622-0.411,0.582-0.755
							C381.152,219.602,380.368,218.945,379.604,219.461z"/>
						<path style="fill:#34322D;" d="M379.706,226.556c-2.511,0.483-4.984,1.318-7.448,2.001c-2.477,0.688-4.956,1.369-7.436,2.047
							c-4.915,1.344-9.831,2.683-14.75,4.014c-9.881,2.674-19.763,5.349-29.644,8.023c-5.583,1.511-11.166,3.022-16.75,4.533
							c-1,0.27-0.59,1.829,0.408,1.554c9.869-2.719,19.739-5.439,29.609-8.158c9.87-2.719,19.736-5.449,29.613-8.142
							c2.79-0.761,5.58-1.524,8.373-2.274c2.777-0.746,5.656-1.345,8.363-2.312C380.847,227.555,380.553,226.393,379.706,226.556z"
							/>
						<path style="fill:#34322D;" d="M383.356,228.091c-0.468-0.163-0.891-0.181-1.384-0.201c-0.395-0.016-0.535,0.356-0.428,0.651
							c-9.614,3.023-19.237,6.015-28.867,8.987c-10.111,3.12-20.221,6.244-30.33,9.374c-5.713,1.769-11.446,3.498-17.116,5.401
							c-0.81,0.272-0.496,1.534,0.34,1.295c10.169-2.909,20.237-6.208,30.334-9.356c10.104-3.15,20.195-6.337,30.305-9.467
							c5.714-1.769,11.426-3.539,17.145-5.292C384.07,229.264,384.03,228.326,383.356,228.091z"/>
						<path style="fill:#34322D;" d="M376.319,236.278c-8.86,2.485-17.723,4.962-26.587,7.433
							c-8.908,2.484-17.821,4.951-26.723,7.458c-5.004,1.41-10.024,2.772-15.005,4.262c-0.856,0.256-0.516,1.571,0.353,1.345
							c8.904-2.313,17.747-4.882,26.605-7.362c8.906-2.493,17.811-4.987,26.717-7.48c5.007-1.402,10.016-2.792,15.025-4.186
							C377.648,237.486,377.261,236.014,376.319,236.278z"/>
					</g>
				</g>
			</g>
			<path style="fill:#E8E5E2;" d="M308.214,223.952c-22.76-1.046-45.529-1.9-68.297-2.79c-22.779-0.89-45.551-1.986-68.312-3.223
				c-6.393-0.347-12.784-0.709-19.175-1.084c-6.372-0.374-12.783-0.948-19.169-0.917c-1.032,0.005-1.242,1.677-0.174,1.783
				c2.379,0.235,4.77,0.371,7.164,0.476c-0.208,0.413-0.379,0.844-0.54,1.193c-0.501,1.085-0.949,2.197-1.35,3.323
				c-0.79,2.215-1.381,4.501-1.768,6.821c-0.772,4.618-0.797,9.339-0.03,13.959c0.215,1.293,0.494,2.576,0.838,3.84
				c0.172,0.632,0.36,1.26,0.564,1.883c0.213,0.648,0.396,1.396,0.764,1.972c0.64,1.003,2.131,0.256,1.83-0.748
				c0.005-0.001,0.009-0.001,0.013-0.002c-0.092-0.521-0.349-1.029-0.525-1.529c-0.192-0.546-0.371-1.096-0.538-1.65
				c-0.322-1.07-0.598-2.154-0.826-3.248c-0.456-2.185-0.714-4.404-0.786-6.635c-0.143-4.479,0.503-8.954,1.884-13.216
				c0.38-1.172,0.814-2.327,1.311-3.455c0.264-0.6,0.535-1.199,0.818-1.79c0.102-0.214,0.203-0.421,0.288-0.63
				c2.678,0.098,5.358,0.163,8.029,0.26c0.81,0.029,1.62,0.06,2.43,0.089c-4.865,7.06-6.676,15.878-5.255,24.322
				c0.214,1.27,0.486,2.541,0.805,3.789c0.165,0.644,0.359,1.28,0.593,1.902c0.102,0.272,0.206,0.544,0.319,0.812
				c0.174,0.413,0.418,0.561,0.669,0.904c0.452,0.617,1.467,0.297,1.285-0.523c-0.054-0.244-0.008-0.503-0.064-0.748
				c-0.063-0.275-0.222-0.545-0.331-0.805c-0.21-0.502-0.413-1.008-0.612-1.514c-0.413-1.052-0.782-2.11-1.046-3.21
				c-0.512-2.132-0.771-4.31-0.798-6.502c-0.052-4.241,0.862-8.458,2.606-12.323c0.967-2.142,2.177-4.163,3.592-6.039
				c4.351,0.155,8.702,0.306,13.052,0.478c11.385,0.45,22.769,0.907,34.15,1.437c22.782,1.063,45.553,2.303,68.324,3.565
				c5.528,0.306,11.058,0.599,16.587,0.886c-3.404,8.052-3.57,17.392-1.008,25.704c0.373,1.21,0.812,2.397,1.3,3.564
				c0.462,1.106,0.929,2.606,1.839,3.42c0.634,0.568,1.514,0.012,1.381-0.792c-0.168-1.014-0.889-1.993-1.313-2.924
				c-0.442-0.971-0.836-1.962-1.185-2.971c-0.713-2.062-1.235-4.184-1.572-6.339c-0.667-4.27-0.565-8.67,0.268-12.909
				c0.446-2.271,1.119-4.501,1.939-6.666c4.248,0.219,8.496,0.425,12.745,0.635c-3.612,7.873-3.857,17.25-1.239,25.451
				c0.793,2.482,1.809,4.902,3.105,7.164c0.683,1.191,2.574,0.106,1.848-1.049c-4.687-7.457-5.984-16.592-3.97-25.137
				c0.513-2.173,1.255-4.292,2.162-6.333c1.818,0.089,3.636,0.185,5.455,0.272C309.753,226.223,309.668,224.019,308.214,223.952z"/>
			<g>
				<path style="fill:#E8E5E2;" d="M217.442,239.733c-2.372,0.698-4.974,0.826-7.429,1.063c-2.474,0.239-4.954,0.421-7.437,0.544
					c-2.483,0.124-4.969,0.19-7.455,0.199c-2.201,0.008-4.474,0.094-6.655-0.261c-1.069-0.174-2.116-0.463-3.07-0.986
					c-0.464-0.254-0.97-0.57-1.307-0.992c0.317-0.464,0.606-0.951,0.861-1.456c0.222-0.439,0.007-0.94-0.465-1.082
					c-1.041-0.312-2.078,0.447-2.331,1.463c-0.094,0.377-0.061,0.742,0.043,1.088c-1.623,1.692-4.044,2.68-6.351,2.213
					c-1.902-0.385-3.556-1.623-4.327-3.272c0.975-0.5,1.923-1.053,2.822-1.678c0.936-0.651,1.932-1.352,2.686-2.214
					c0.665-0.76,1.125-1.716,0.797-2.734c-0.266-0.825-1.03-1.436-1.857-1.628c-1.886-0.439-3.821,0.571-4.999,2.013
					c-1.228,1.502-1.81,3.481-1.516,5.405c0.017,0.11,0.049,0.216,0.072,0.325c-0.949,0.377-1.924,0.69-2.924,0.933
					c-1.936,0.47-4.273,0.74-5.953-0.588c-1.204-0.952-1.748-3.068-0.185-3.99c1.022-0.604,0.119-2.157-0.92-1.593
					c-1.901,1.032-2.42,3.515-1.469,5.376c1.064,2.081,3.54,2.952,5.753,2.838c2.094-0.109,4.182-0.83,6.117-1.699
					c0.636,1.383,1.758,2.548,3.064,3.311c2.105,1.23,4.679,1.417,6.932,0.478c1.194-0.498,2.212-1.252,3.072-2.165
					c0.198,0.208,0.412,0.396,0.626,0.56c1.922,1.465,4.363,1.862,6.719,1.978c5.766,0.285,11.629-0.059,17.373-0.562
					c1.622-0.142,3.241-0.31,4.858-0.5c1.695-0.199,3.404-0.508,5.11-0.519C219.085,241.591,218.769,239.342,217.442,239.733z
					 M171.23,234.91c0.374-1.394,1.319-2.683,2.658-3.28c1.072-0.479,3.701-0.33,2.7,1.466c-0.448,0.804-1.342,1.385-2.072,1.908
					c-0.766,0.549-1.564,1.053-2.388,1.509c-0.327,0.181-0.66,0.345-0.994,0.509C171.017,236.351,171.034,235.641,171.23,234.91z"/>
				<path style="fill:#E8E5E2;" d="M276.402,243.605c-4.357-1.513-8.954-2.144-13.552-2.249c-2.291-0.052-4.586,0.006-6.87,0.193
					c-2.251,0.185-4.704,0.651-6.88-0.2c-0.026-0.01-0.053-0.027-0.079-0.037c1.201-0.794,2.132-1.892,2.211-3.474
					c0.099-1.997-1.561-3.482-3.523-2.998c-1.908,0.471-3.082,2.304-2.72,4.223c0.142,0.752,0.489,1.418,0.952,1.998
					c-1.957,0.641-3.96,1.21-5.971,1.628c-4.316,0.896-9.441,0.655-12.517-2.936c-0.809-0.945-2.137,0.43-1.352,1.372
					c3.168,3.795,8.473,4.427,13.063,3.581c2.706-0.499,5.381-1.406,7.938-2.412c0.04-0.016,0.081-0.036,0.121-0.052
					c0.736,0.498,1.573,0.852,2.415,1.022c1.314,0.265,2.627,0.195,3.956,0.153c1.35-0.043,2.7-0.093,4.05-0.131
					c6.166-0.172,12.391,0.249,18.248,2.321C277.142,246.047,277.653,244.04,276.402,243.605z M246.592,237.504
					c0.466-1.151,2.506-2.062,3.146-0.564c0.347,0.812-0.035,1.843-0.599,2.459c-0.416,0.454-0.945,0.775-1.505,1.034
					C246.767,239.669,246.148,238.602,246.592,237.504z"/>
			</g>
		</g>
		<g>
			<g>
				<path style="fill:#DF431C;" d="M344.684,207.223l-41.74,11.662L165.487,208.45c0,0-19.013-16.891,0.873-37.506l67.518-10.535
					l77.124,6.08l31.968,2.52c0,0-0.509,1.183-1.172,3.161c-0.099,0.287-0.199,0.586-0.298,0.895
					c-2.111,6.566-5.195,19.842,0.232,29.945C342.517,204.492,343.49,205.907,344.684,207.223z"/>
				<path style="fill:#FDF9F7;" d="M341.734,203.009l-40.763,11.522c-9.217-12.601-2.753-29.581-2.753-29.581l43.577-12.783
					C339.696,178.352,336.046,192.421,341.734,203.009z"/>
				<path style="fill:#EACDB8;" d="M341.795,172.167c-39.138,14.008-40.824,42.364-40.824,42.364
					c-9.217-12.601-2.753-29.581-2.753-29.581L341.795,172.167z"/>
			</g>
			<path style="fill:#FEFCF2;" d="M175.032,177.955c-0.124,0.171-0.196,0.365-0.314,0.525c-0.11,0.15-0.256,0.276-0.393,0.401
				c-0.328,0.3-0.681,0.551-1.059,0.785c-0.695,0.429-1.439,0.79-2.22,1.035c-1.82,0.571-3.763,0.618-5.601,0.109
				c-0.164-0.046-0.308-0.034-0.441,0c-0.323-0.111-0.714-0.037-1.011,0.365c-3.61,4.88-3.813,11.664-0.558,16.776
				c0.094,0.148,0.214,0.236,0.342,0.299c0.14,0.268,0.392,0.47,0.747,0.458c1.831-0.06,3.77,0.475,5.218,1.591
				c1.378,1.062,2.26,2.483,2.766,4.145c0.415,1.363,2.445,0.829,2.137-0.561c-0.481-2.173-1.908-4.127-3.7-5.408
				c-1.803-1.289-3.986-1.79-6.162-1.571c-2.811-4.424-2.74-10.097,0.361-14.355c3.312,0.735,6.871-0.056,9.602-2.06
				c0.358-0.263,0.7-0.549,1.06-0.808c0.391-0.281,0.915-0.472,1.056-1.011C177.187,177.439,175.702,177.033,175.032,177.955z"/>
			<path style="fill:#FEFCF2;" d="M287.634,195.165c0.024-0.064,0.054-0.125,0.062-0.2c0.046-0.408-0.203-0.868-0.636-0.954
				c-0.58-0.115-1.186-0.107-1.775-0.17c-0.602-0.064-1.2-0.162-1.792-0.291c-1.138-0.247-2.248-0.615-3.265-1.189
				c-1.732-0.98-3.145-2.539-3.595-4.51c-0.252-1.104-1.936-0.654-1.696,0.445c0.511,2.347,2.155,4.286,4.186,5.504
				c1.115,0.668,2.368,1.126,3.63,1.424c0.632,0.149,1.272,0.254,1.916,0.337c0.392,0.051,0.808,0.114,1.221,0.152
				c0.654,1.737,0.943,3.558,0.864,5.413c-0.039,0.923-0.181,1.832-0.417,2.726c-0.112,0.425-0.245,0.846-0.398,1.258
				c-0.123,0.329-0.276,0.638-0.372,0.965c-2.03-0.243-4.06,0.117-5.884,1.063c-0.931,0.482-1.805,1.115-2.536,1.867
				c-0.743,0.764-1.528,1.741-1.852,2.772c-0.148,0.472,0.153,1.005,0.596,1.177c0.484,0.189,0.965,0.002,1.249-0.427
				c0.485-0.731,0.832-1.45,1.444-2.087c0.611-0.635,1.294-1.176,2.063-1.607c1.54-0.863,3.289-1.212,5.041-1
				c0.322,0.039,0.554-0.126,0.698-0.359c0.239,0.003,0.482-0.068,0.676-0.235c0.417-0.36,0.585-0.936,0.774-1.438
				c0.189-0.5,0.347-1.011,0.475-1.53c0.254-1.026,0.398-2.089,0.434-3.146C288.816,199.072,288.397,197.06,287.634,195.165z"/>
			<path style="fill:#FEFCF2;" d="M275.945,187.061c-6.467-1.067-13.035-1.473-19.557-2.069c-6.479-0.592-12.962-1.14-19.449-1.648
				c-13.018-1.019-26.044-2.096-39.037-3.392c-7.303-0.729-14.597-1.52-21.891-2.33c-1.178-0.131-1.358,1.798-0.176,1.887
				c13.028,0.979,26.038,2.079,39.037,3.39c12.995,1.311,25.98,2.745,38.982,3.978c7.294,0.692,14.611,1.635,21.941,1.797
				C276.809,188.697,276.946,187.226,275.945,187.061z"/>
			<path style="fill:#FEFCF2;" d="M267.601,210.434c-6.094-0.905-12.273-1.147-18.412-1.579c-6.099-0.429-12.2-0.816-18.304-1.162
				c-12.25-0.693-24.508-1.444-36.739-2.415c-6.874-0.546-13.742-1.155-20.609-1.782c-1.109-0.101-1.249,1.831-0.137,1.89
				c12.259,0.653,24.503,1.427,36.739,2.413c12.233,0.985,24.458,2.094,36.697,3.002c6.866,0.509,13.756,1.269,20.648,1.248
				C268.438,212.047,268.545,210.574,267.601,210.434z"/>
			<path style="fill:#FEFCF2;" d="M170.648,177.021c-0.035-0.065-0.083-0.122-0.128-0.18c-0.047-0.062-0.09-0.123-0.148-0.175
				c-0.214-0.195-0.484-0.357-0.773-0.406c-0.234-0.039-0.389-0.04-0.623-0.002c-0.038,0.006-0.075,0.015-0.111,0.027
				c-0.098,0.033-0.203,0.072-0.292,0.127c-0.205,0.127-0.339,0.269-0.476,0.464c-0.027,0.038-0.05,0.078-0.07,0.12
				c-0.075,0.161-0.126,0.298-0.131,0.477c0,0.009,0.004,0.018,0.004,0.027c-0.008,0.017-0.021,0.027-0.029,0.046
				c0.003-0.007-0.037,0.079-0.045,0.112c-0.016,0.065-0.025,0.159-0.028,0.226c-0.001,0.017-0.001,0.034-0.001,0.051
				c0.004,0.214,0.051,0.337,0.133,0.529c0.063,0.146,0.165,0.27,0.266,0.392c0.102,0.123,0.242,0.224,0.39,0.287
				c0.233,0.099,0.399,0.154,0.657,0.164c0.112,0.004,0.228-0.017,0.336-0.035c0.044-0.008,0.086-0.019,0.127-0.034
				c0.246-0.09,0.395-0.176,0.596-0.345c0.119-0.1,0.215-0.234,0.298-0.362c0.023-0.035,0.043-0.072,0.059-0.11
				c0.045-0.103,0.097-0.21,0.124-0.321c0.047-0.192,0.052-0.369,0.027-0.561C170.788,177.352,170.741,177.193,170.648,177.021z"/>
			<g>
				<path style="fill:#FEFCF2;" d="M168.543,203.578c0.01-0.076,0.02-0.152,0.029-0.228c-0.005,0.046-0.014,0.092-0.019,0.139
					C168.549,203.518,168.548,203.549,168.543,203.578z"/>
				<path style="fill:#FEFCF2;" d="M168.541,202.903c-0.007-0.036-0.018-0.071-0.031-0.105c-0.035-0.092-0.078-0.221-0.138-0.313
					c-0.142-0.214-0.281-0.356-0.501-0.493c-0.1-0.062-0.22-0.102-0.326-0.142c-0.045-0.017-0.091-0.029-0.139-0.036
					c-0.113-0.018-0.235-0.039-0.352-0.038c-0.12,0.001-0.244,0.021-0.36,0.04c-0.044,0.007-0.088,0.018-0.131,0.032
					c-0.116,0.038-0.23,0.083-0.338,0.139c-0.02,0.01-0.039,0.021-0.058,0.033c-0.074,0.045-0.166,0.113-0.213,0.159
					c-0.048,0.063-0.097,0.127-0.145,0.19c-0.029,0.071-0.058,0.143-0.087,0.214c-0.052,0.167-0.032,0.408,0.005,0.574
					c0.026,0.113,0.076,0.223,0.132,0.324c0.011,0.019,0.023,0.037,0.035,0.054c0.042,0.059,0.089,0.118,0.136,0.175
					c0.003,0.011,0.005,0.023,0.009,0.034c0.034,0.094,0.067,0.191,0.116,0.279c0.019,0.035,0.099,0.131,0.082,0.109
					c0.027,0.036,0.055,0.078,0.087,0.112c0.01,0.01,0.02,0.021,0.031,0.03c0.078,0.07,0.165,0.134,0.251,0.193
					c0.022,0.015,0.046,0.029,0.07,0.04c0.092,0.042,0.188,0.086,0.286,0.114c0.012,0.003,0.024,0.006,0.036,0.008
					c0.086,0.017,0.183,0.028,0.271,0.035c0.012,0.001,0.024,0.001,0.036,0.001c0.067,0,0.185-0.02,0.251-0.031
					c0.005-0.001,0.01-0.001,0.015-0.003c0.012-0.003,0.024-0.006,0.035-0.01c0.085-0.029,0.175-0.065,0.256-0.104
					c0.023-0.011,0.044-0.024,0.065-0.039c0.075-0.053,0.154-0.111,0.224-0.172c0.011-0.009,0.02-0.019,0.03-0.029
					c0.01-0.01,0.018-0.021,0.027-0.032c0.057-0.072,0.118-0.145,0.168-0.222c0.015-0.024,0.027-0.049,0.039-0.074
					c0.035-0.08,0.09-0.196,0.113-0.295c0.013-0.055,0.017-0.113,0.023-0.169c0.013-0.082,0.029-0.165,0.028-0.248
					C168.58,203.128,168.562,203.013,168.541,202.903z"/>
			</g>
			<path style="fill:#FEFCF2;" d="M283.929,188.961c-0.007-0.039-0.015-0.077-0.028-0.114c-0.033-0.096-0.071-0.202-0.126-0.291
				c-0.192-0.311-0.478-0.517-0.823-0.628c-0.036-0.011-0.073-0.02-0.11-0.026c-0.101-0.017-0.208-0.035-0.312-0.033
				c-0.138,0.002-0.285,0.019-0.415,0.068c-0.198,0.074-0.355,0.153-0.51,0.305c-0.088,0.086-0.137,0.192-0.192,0.296
				c-0.041,0.02-0.085,0.035-0.118,0.068c-0.066,0.038-0.117,0.09-0.155,0.155c-0.074,0.081-0.123,0.176-0.148,0.286
				c-0.004,0.011-0.008,0.022-0.01,0.033c-0.016,0.057-0.031,0.172-0.03,0.231c0.001,0.087,0.019,0.176,0.032,0.26
				c0.013,0.085,0.041,0.155,0.074,0.236c0.075,0.185,0.188,0.352,0.333,0.493c0.081,0.079,0.176,0.145,0.266,0.21
				c0.042,0.031,0.087,0.057,0.134,0.079c0.226,0.105,0.407,0.155,0.654,0.175c0.387,0.03,0.748-0.141,1.031-0.39
				c0.115-0.101,0.212-0.232,0.286-0.365c0.05-0.09,0.086-0.19,0.122-0.285c0.017-0.045,0.031-0.091,0.04-0.138
				C283.967,189.358,283.966,189.188,283.929,188.961z"/>
			<path style="fill:#FEFCF2;" d="M284.681,211.64c-0.017-0.057-0.043-0.114-0.065-0.168c-0.025-0.06-0.047-0.123-0.078-0.18
				c-0.062-0.111-0.148-0.216-0.229-0.31c-0.081-0.095-0.202-0.175-0.297-0.245c-0.14-0.102-0.312-0.176-0.48-0.212
				c-0.235-0.05-0.493-0.063-0.726,0.011c-0.153,0.049-0.286,0.121-0.411,0.208c-0.018,0.003-0.035-0.005-0.053-0.001
				c-0.145,0.037-0.199,0.075-0.302,0.155c-0.047,0.036-0.076,0.052-0.109,0.089c-0.08,0.088-0.153,0.184-0.216,0.285
				c-0.131,0.209-0.176,0.453-0.181,0.697c-0.003,0.168,0.015,0.347,0.077,0.504c0.043,0.109,0.085,0.236,0.151,0.339
				c0.068,0.106,0.144,0.209,0.231,0.3c0.086,0.091,0.196,0.166,0.296,0.236c0.099,0.069,0.23,0.111,0.336,0.152
				c0.155,0.059,0.331,0.08,0.495,0.077c0.163-0.004,0.341-0.025,0.497-0.084c0.109-0.042,0.233-0.084,0.336-0.146
				c0.107-0.064,0.205-0.143,0.299-0.224c0.035-0.03,0.066-0.064,0.095-0.101c0.075-0.095,0.162-0.191,0.215-0.302
				c0.106-0.224,0.184-0.458,0.172-0.711C284.729,211.886,284.717,211.759,284.681,211.64z"/>
			<path style="fill:#FEFCF2;" d="M271.073,196.362c-0.039-0.448-0.326-0.896-0.831-0.893c-0.02,0-0.035,0.009-0.055,0.01
				c-0.135-0.094-0.293-0.167-0.498-0.177c-12.071-0.616-24.139-1.646-36.182-2.66c-12.063-1.016-24.115-2.137-36.157-3.375
				c-6.826-0.702-13.651-1.42-20.484-2.048c-0.977-0.09-1.266,1.028-0.807,1.65c-0.008,0.038-0.027,0.073-0.029,0.113
				c-0.058,1.024-0.116,2.049-0.175,3.073c-0.027,0.476-0.05,0.951-0.067,1.427c-0.01,0.276-0.064,0.609-0.003,0.881
				c0.081,0.363,0.381,0.689,0.761,0.733c0.155,0.158,0.357,0.281,0.633,0.307c12.051,1.118,24.134,1.79,36.193,2.801
				c12.015,1.007,24.047,1.825,36.057,2.879c6.786,0.596,13.58,1.084,20.376,1.563c0.374,0.026,0.635-0.131,0.804-0.359
				c0.14-0.144,0.234-0.333,0.246-0.544c0.048-0.896,0.074-1.793,0.099-2.69c0.012-0.44,0.021-0.879,0.048-1.319
				C271.031,197.287,271.112,196.807,271.073,196.362z M233.638,198.385c-12.028-0.876-24.047-1.792-36.044-3.021
				c-6.685-0.685-13.368-1.367-20.059-1.99c0.014-0.42,0.025-0.839,0.031-1.259c0.014-0.93,0.028-1.859,0.042-2.789
				c11.782,0.953,23.581,1.71,35.368,2.604c12.064,0.915,24.126,1.999,36.163,3.218c6.728,0.682,13.467,1.29,20.18,2.107
				c0.004,0.14,0.009,0.281,0.008,0.416c-0.003,0.44-0.024,0.879-0.042,1.319c-0.022,0.527-0.034,1.054-0.05,1.581
				C257.365,199.893,245.495,199.249,233.638,198.385z"/>
			<g>
				<defs>
					<path id="SVGID_00000134956047106485380290000000762055973616217517_" d="M341.734,203.009l-40.763,11.522
						c-9.217-12.601-2.753-29.581-2.753-29.581l43.577-12.783C339.696,178.352,336.046,192.421,341.734,203.009z"/>
				</defs>
				<clipPath id="SVGID_00000019645746001461689600000013177965635086973845_">
					<use xlink:href="#SVGID_00000134956047106485380290000000762055973616217517_"  style="overflow:visible;"/>
				</clipPath>
				<g style="clip-path:url(#SVGID_00000019645746001461689600000013177965635086973845_);">
					<path style="fill:#34322D;" d="M357.509,170.588c-4.292,1.117-8.54,2.431-12.803,3.653c-4.169,1.195-8.344,2.371-12.516,3.555
						c-8.437,2.395-16.883,4.802-25.383,6.963c-4.789,1.217-9.573,2.452-14.355,3.696c-1.089,0.283-0.635,2,0.442,1.687
						c8.428-2.448,16.841-4.94,25.296-7.295c8.452-2.354,16.935-4.594,25.412-6.853c4.771-1.271,9.586-2.424,14.328-3.802
						C358.955,171.895,358.544,170.319,357.509,170.588z"/>
					<path style="fill:#34322D;" d="M352.172,181.669c-4.292,1.117-8.54,2.431-12.803,3.653c-4.169,1.195-8.344,2.371-12.516,3.555
						c-8.437,2.395-16.883,4.802-25.383,6.963c-4.789,1.217-9.573,2.452-14.355,3.696c-1.089,0.283-0.635,2,0.442,1.687
						c8.428-2.448,16.841-4.94,25.296-7.295c8.452-2.354,16.935-4.594,25.412-6.853c4.771-1.271,9.586-2.424,14.328-3.802
						C353.617,182.975,353.207,181.399,352.172,181.669z"/>
					<path style="fill:#34322D;" d="M350.862,176.237c-15.449,4.939-30.944,9.719-46.511,14.274
						c-4.349,1.272-8.689,2.574-13.031,3.87c-1.083,0.323-0.631,2.034,0.445,1.696c15.476-4.862,30.915-9.828,46.46-14.468
						c4.342-1.296,8.686-2.584,13.034-3.858C352.227,177.466,351.819,175.931,350.862,176.237z"/>
					<path style="fill:#34322D;" d="M346.809,187.249c-14.28,4.955-28.813,9.226-43.416,13.114c-4.132,1.1-8.274,2.165-12.415,3.232
						c-0.911,0.235-0.536,1.661,0.37,1.412c7.29-2.005,14.532-4.172,21.796-6.268c7.261-2.096,14.52-4.201,21.76-6.368
						c4.094-1.225,8.19-2.448,12.295-3.637C348.155,188.457,347.735,186.928,346.809,187.249z"/>
					<path style="fill:#34322D;" d="M347.736,191.491c-14.554,4.692-29.153,9.241-43.795,13.65
						c-4.137,1.246-8.311,2.421-12.405,3.802c-0.968,0.326-0.594,1.834,0.406,1.549c3.674-1.044,7.305-2.272,10.943-3.436
						c3.642-1.166,7.284-2.332,10.926-3.498c7.281-2.33,14.602-4.532,21.915-6.758c4.137-1.259,8.271-2.53,12.414-3.768
						C349.124,192.737,348.709,191.177,347.736,191.491z"/>
					<path style="fill:#34322D;" d="M351.953,194.967c-3.977,1.147-7.904,2.502-11.848,3.76c-3.851,1.228-7.709,2.435-11.564,3.651
						c-7.805,2.463-15.615,4.909-23.432,7.333c-2.219,0.688-4.439,1.374-6.658,2.064c-2.166,0.673-4.413,1.256-6.508,2.126
						c-0.731,0.304-0.206,1.389,0.503,1.236c2.009-0.434,3.986-1.174,5.948-1.788c1.929-0.604,3.854-1.218,5.781-1.828
						c3.902-1.234,7.797-2.491,11.706-3.705c7.719-2.398,15.437-4.796,23.155-7.194c4.434-1.378,8.922-2.627,13.32-4.115
						C353.319,196.182,352.946,194.68,351.953,194.967z"/>
				</g>
			</g>
			<path style="fill:#FEFCF2;" d="M339.546,169.337c-1.562,0.349-3.096,0.887-4.629,1.344c-1.496,0.446-2.992,0.891-4.489,1.337
				c-3.036,0.904-6.073,1.807-9.112,2.703c-6.077,1.792-12.157,3.573-18.249,5.312c-3.443,0.983-6.895,1.932-10.34,2.906
				c-0.078,0.022-0.135,0.062-0.194,0.1c-0.069-0.037-0.145-0.068-0.238-0.08c-13.99-1.797-28.016-3.291-42.033-4.858
				c-14.017-1.567-28.033-3.14-42.052-4.691c-3.881-0.429-7.763-0.859-11.644-1.288c-3.967-0.439-7.952-0.921-11.934-1.173
				c-0.867-0.055-1.007,1.201-0.149,1.339c3.49,0.559,7.021,0.915,10.53,1.329c3.513,0.414,7.031,0.791,10.546,1.186
				c6.985,0.785,13.971,1.565,20.957,2.341c14.018,1.558,28.036,3.117,42.054,4.675c7.855,0.873,15.711,1.717,23.579,2.461
				c0.135,0.013,0.245-0.017,0.343-0.063c0.151,0.126,0.353,0.189,0.602,0.116c12.15-3.598,24.315-7.134,36.516-10.558
				c1.679-0.471,3.359-0.942,5.038-1.414c1.76-0.494,3.573-0.906,5.294-1.521C340.874,170.507,340.536,169.116,339.546,169.337z"/>
		</g>
		<polygon style="fill:#34322D;" points="164.538,172.947 192.439,197.323 342.97,169.009 		"/>
		<g>
			<path style="fill:#63A19A;" d="M352.098,167.208l-160.983,20.084l-34.36-18.545c0.547-0.849,1.193-2.019,1.491-3.212
				c1.237-5.064,2.519-15.038-1.981-26.813c-0.492-1.283-1.051-2.593-1.233-2.596l135.371-16.601l8.388,2.019l35.685,8.601
				l18.154,4.38C352.63,134.526,367.215,150.609,352.098,167.208z"/>
			<path style="fill:#FDF9F7;" d="M189.922,182.72l-2.592-1.409l-3.318-1.797l-25.767-13.976c1.239-5.067,2.523-15.044-1.984-26.812
				c0,0,0.008,0.007,0.023,0.013l10.873,4.655l22.756,11.151C189.914,154.545,200.646,171.557,189.922,182.72z"/>
			<path style="fill:#EACDB8;" d="M189.922,182.72l-2.592-1.409c5.003-20.143-30.048-41.957-31.045-42.572l10.873,4.655
				l22.756,11.151C189.914,154.545,200.646,171.557,189.922,182.72z"/>
			<g>
				<defs>
					<path id="SVGID_00000062158645872711711360000005080899038327377314_" d="M189.922,182.72l-31.677-17.182
						c1.239-5.067,2.523-15.044-1.984-26.812l33.653,15.819C189.914,154.545,200.646,171.557,189.922,182.72z"/>
				</defs>
				<clipPath id="SVGID_00000055691604162072159100000017557797774825041845_">
					<use xlink:href="#SVGID_00000062158645872711711360000005080899038327377314_"  style="overflow:visible;"/>
				</clipPath>
				<g style="clip-path:url(#SVGID_00000055691604162072159100000017557797774825041845_);">
					<path style="fill:#34322D;" d="M196.177,177.229c-1.349-0.779-2.788-1.376-4.201-2.03c-1.385-0.641-2.766-1.291-4.142-1.95
						c-2.805-1.344-5.596-2.717-8.367-4.132c-5.488-2.803-10.901-5.752-16.231-8.845c-3.02-1.752-6.019-3.539-8.989-5.374
						c-0.457-0.282-0.807,0.473-0.357,0.755c5.248,3.29,10.585,6.432,16.009,9.422c5.397,2.975,10.873,5.806,16.421,8.488
						c1.559,0.754,3.125,1.492,4.696,2.219c1.597,0.74,3.182,1.537,4.857,2.084C196.3,178.006,196.579,177.461,196.177,177.229z"/>
					<path style="fill:#34322D;" d="M200.229,173.697c-5.83-2.742-11.678-5.446-17.519-8.165
						c-5.813-2.706-11.632-5.398-17.449-8.095c-3.303-1.532-6.597-3.088-9.93-4.555c-0.381-0.168-0.652,0.4-0.277,0.586
						c5.771,2.861,11.637,5.538,17.462,8.285c5.799,2.735,11.601,5.464,17.404,8.19c2.727,1.281,5.454,2.562,8.184,3.837
						c0.032,0.042,0.072,0.08,0.126,0.107c0.515,0.254,1.042,0.496,1.581,0.694C200.391,174.791,200.808,173.969,200.229,173.697z"
						/>
					<path style="fill:#34322D;" d="M197.24,168.074c-1.171-0.851-2.656-1.322-3.98-1.89c-1.406-0.603-2.81-1.213-4.211-1.828
						c-2.774-1.218-5.539-2.459-8.292-3.723c-5.507-2.528-10.972-5.147-16.393-7.855c-3.059-1.529-6.106-3.08-9.138-4.661
						c-0.397-0.207-0.691,0.418-0.297,0.628c5.349,2.851,10.745,5.609,16.188,8.274c5.442,2.665,10.929,5.239,16.456,7.722
						c1.532,0.688,3.068,1.37,4.606,2.044c0.797,0.349,1.592,0.703,2.395,1.037c0.782,0.325,1.547,0.692,2.385,0.838
						C197.27,168.712,197.52,168.277,197.24,168.074z"/>
					<path style="fill:#34322D;" d="M197.389,165.07c-2.805-1.469-5.733-2.734-8.596-4.084c-2.869-1.353-5.738-2.706-8.608-4.06
						c-5.71-2.693-11.416-5.396-17.132-8.078c-3.238-1.52-6.476-3.039-9.714-4.559c-0.377-0.177-0.654,0.404-0.277,0.586
						c5.715,2.756,11.431,5.511,17.151,8.257c5.692,2.732,11.384,5.464,17.076,8.197c1.598,0.767,3.196,1.534,4.795,2.301
						c1.129,0.542,2.257,1.094,3.393,1.627c0.022,0.055,0.067,0.102,0.141,0.128c0.467,0.158,0.908,0.359,1.357,0.563
						C197.544,166.207,197.942,165.36,197.389,165.07z"/>
					<path style="fill:#34322D;" d="M197.927,161.715c-0.614-0.507-1.344-0.8-2.058-1.142c-0.729-0.349-1.458-0.698-2.188-1.047
						c-1.43-0.685-2.859-1.372-4.289-2.058c-2.915-1.399-5.831-2.798-8.747-4.196c-5.775-2.771-11.548-5.546-17.321-8.319
						c-3.279-1.575-6.564-3.139-9.849-4.702c-0.41-0.195-0.711,0.437-0.302,0.639c5.775,2.844,11.559,5.667,17.344,8.489
						c5.757,2.808,11.514,5.618,17.27,8.428l4.862,2.374c0.81,0.396,1.62,0.793,2.43,1.189c0.814,0.399,1.611,0.875,2.502,1.067
						C197.983,162.523,198.241,161.975,197.927,161.715z"/>
					<path style="fill:#34322D;" d="M195.542,181.718c-1.251-0.839-2.611-1.532-3.926-2.266c-1.331-0.743-2.667-1.478-4.007-2.207
						c-2.625-1.428-5.255-2.846-7.89-4.253c-5.324-2.844-10.671-5.648-16.05-8.388c-3.042-1.549-6.1-3.066-9.162-4.576
						c-0.379-0.187-0.638,0.402-0.267,0.597c10.647,5.579,21.26,11.23,31.783,17.039c1.495,0.826,2.988,1.656,4.485,2.478
						c1.489,0.817,2.96,1.723,4.506,2.427C195.516,182.797,196.027,182.044,195.542,181.718z"/>
				</g>
			</g>
			<path style="fill:#D8BB30;" d="M352.221,141.233c-1.025-2.011-2.328-3.832-3.888-5.463c-0.154-0.161-0.35-0.181-0.533-0.129
				c-0.092-0.04-0.195-0.065-0.32-0.053c-4.755,0.43-9.475,1.205-14.221,1.743c-4.744,0.537-14.321,1.436-19.065,1.974
				c-9.487,1.075-18.977,2.134-28.464,3.209c-18.878,2.138-37.757,4.276-56.635,6.414c-10.65,1.206-21.298,2.417-31.947,3.63
				c-0.817,0.093-0.816,1.23-0.161,1.413c4.322,6.578,5.35,15.07,3.023,22.56c-0.332,1.069-0.744,2.116-1.218,3.13
				c-0.479,1.026-0.934,2.058-1.405,3.087c-0.196,0.428,0.385,0.818,0.698,0.454c0.692-0.805,1.282-1.62,1.753-2.576
				c0.458-0.93,0.846-1.897,1.182-2.877c0.677-1.978,1.14-4.021,1.362-6.1c0.444-4.147,0.006-8.406-1.368-12.35
				c-0.663-1.905-1.557-3.728-2.636-5.432c18.601-2.145,37.201-4.304,55.801-6.461c18.874-2.19,37.747-4.395,56.621-6.584
				c5.324-0.617,15.481-1.596,20.804-2.214c5.321-0.617,10.678-0.985,15.981-1.721c0.015-0.002,0.024-0.01,0.039-0.013
				c2.384,2.795,4.172,6.066,5.123,9.62c0.988,3.695,0.983,7.598,0.092,11.311c-0.508,2.118-1.289,4.156-2.288,6.09
				c-0.334,0.648,0.634,1.064,1.003,0.474C355.872,157.464,355.881,148.408,352.221,141.233z"/>
			<path style="fill:#D8BB30;" d="M233.711,159.572c-0.398-1.652-0.979-3.238-1.707-4.761c-0.042-0.088-0.096-0.149-0.156-0.193
				c-0.013-0.23-0.172-0.458-0.46-0.455c-4.101,0.044-8.243,0.457-12.295,1.101c-0.486,0.077-0.63,0.611-0.479,0.964
				c-0.034,0.102-0.043,0.217,0.008,0.35c1.293,3.319,1.996,6.853,2.085,10.435c0.09,3.625-0.533,7.105-1.653,10.525
				c-0.036,0.11-0.038,0.213-0.024,0.31c-0.176,0.431,0.051,1.052,0.639,1.016c1.943-0.121,3.881-0.433,5.812-0.69
				c0.951-0.126,1.904-0.242,2.857-0.344c0.983-0.105,1.973-0.131,2.952-0.272c0.381-0.055,0.562-0.367,0.581-0.682
				c1.377-2.526,2.109-5.51,2.418-8.38C234.608,165.516,234.411,162.48,233.711,159.572z M232.615,172.005
				c-0.398,1.458-0.978,2.829-1.605,4.19c-0.92,0.163-1.827,0.395-2.751,0.543c-0.948,0.152-1.901,0.27-2.856,0.357
				c-1.684,0.153-3.371,0.203-5.056,0.308c1.679-5.231,1.841-11.106,0.692-16.457c-0.33-1.534-0.781-3.034-1.338-4.493
				c1.861-0.312,3.729-0.592,5.601-0.822c1.912-0.235,3.824-0.369,5.742-0.511c-0.009,0.106-0.001,0.215,0.054,0.328
				C233.595,160.512,234.107,166.536,232.615,172.005z"/>
			<path style="fill:#D8BB30;" d="M197.808,153.135c-1.037-0.649-2.279-1.034-3.407-1.503c-1.09-0.453-2.179-0.908-3.27-1.359
				c-2.239-0.925-4.503-1.794-6.725-2.76c-4.382-1.906-8.704-3.943-13.042-5.945c-2.479-1.144-4.952-2.299-7.437-3.43
				c-0.741-0.337-1.293,0.819-0.543,1.144c4.443,1.926,8.904,3.814,13.361,5.707c4.46,1.894,8.849,3.913,13.209,6.027
				c1.228,0.596,2.465,1.173,3.698,1.758c1.216,0.576,2.439,1.287,3.736,1.655c0.328,0.093,0.676-0.167,0.772-0.465
				C198.273,153.616,198.102,153.319,197.808,153.135z"/>
			<path style="fill:#D8BB30;" d="M216.814,160.892c-0.386-1.591-0.868-3.217-1.602-4.688c0.052-0.095,0.081-0.201,0.07-0.305
				c-0.038-0.374-0.555-0.691-0.873-0.396c-0.144,0.134-0.53,0.122-0.714,0.143c-0.249,0.027-0.496,0.051-0.746,0.065
				c-0.499,0.028-0.997,0.058-1.496,0.093c-0.997,0.069-1.991,0.155-2.985,0.249c-0.108,0.01-0.19,0.051-0.259,0.103
				c-0.296,0.099-0.529,0.391-0.389,0.768c2.029,5.461,2.585,11.411,1.583,17.151c-0.136,0.782-0.301,1.558-0.493,2.328
				c-0.203,0.813-0.536,1.624-0.607,2.46c-0.025,0.303,0.151,0.489,0.367,0.535c0.095,0.188,0.281,0.326,0.554,0.298
				c1.031-0.107,2.06-0.231,3.089-0.35c0.515-0.06,1.034-0.081,1.551-0.108c0.238-0.012,0.481-0.009,0.717-0.038
				c0.291-0.036,0.538-0.175,0.81-0.272c0.191-0.068,0.279-0.237,0.284-0.41c0.082-0.009,0.162-0.032,0.236-0.08
				c0.58-0.375,0.687-1.4,0.851-2.027c0.186-0.708,0.347-1.423,0.477-2.144c0.272-1.496,0.431-3.012,0.48-4.531
				C217.816,166.761,217.515,163.785,216.814,160.892z M216.127,173.433c-0.142,0.801-0.314,1.598-0.516,2.387
				c-0.101,0.393-0.209,0.785-0.328,1.173c-0.107,0.349-0.229,0.67-0.171,1.018c-0.217-0.041-0.43-0.086-0.657-0.07
				c-0.237,0.017-0.475,0.07-0.71,0.106c-0.512,0.078-1.025,0.161-1.542,0.205c-0.885,0.076-1.77,0.153-2.654,0.237
				c0.186-0.487,0.305-1.006,0.433-1.505c0.184-0.715,0.344-1.436,0.481-2.162c0.277-1.479,0.455-2.977,0.533-4.48
				c0.155-3.002-0.039-6.019-0.649-8.964c-0.305-1.469-0.707-2.914-1.199-4.331c0.802-0.089,1.603-0.18,2.404-0.287
				c0.495-0.066,0.99-0.137,1.484-0.209c0.227-0.033,0.453-0.059,0.682-0.08c0.125-0.012,0.336-0.051,0.521-0.054
				c0.467,1.353,0.981,2.681,1.352,4.067c0.381,1.423,0.651,2.875,0.819,4.338C216.739,167.685,216.628,170.598,216.127,173.433z"/>
			<path style="fill:#D8BB30;" d="M345.586,147.089c-0.398-1.652-0.979-3.238-1.707-4.761c-0.042-0.088-0.096-0.149-0.156-0.193
				c-0.013-0.231-0.172-0.458-0.46-0.455c-4.101,0.044-8.243,0.457-12.295,1.101c-0.486,0.077-0.63,0.611-0.479,0.964
				c-0.034,0.102-0.043,0.217,0.008,0.35c1.293,3.319,1.996,6.853,2.085,10.435c0.09,3.625-0.533,7.105-1.653,10.525
				c-0.036,0.11-0.038,0.213-0.024,0.31c-0.176,0.431,0.051,1.052,0.639,1.016c1.943-0.121,3.881-0.433,5.812-0.69
				c0.951-0.126,1.904-0.242,2.857-0.344c0.983-0.105,1.973-0.13,2.952-0.272c0.381-0.055,0.562-0.367,0.581-0.682
				c1.377-2.526,2.109-5.51,2.418-8.38C346.484,153.033,346.287,149.997,345.586,147.089z M344.491,159.522
				c-0.398,1.458-0.978,2.829-1.606,4.19c-0.92,0.163-1.827,0.395-2.751,0.543c-0.948,0.152-1.901,0.27-2.856,0.357
				c-1.684,0.153-3.371,0.203-5.056,0.308c1.679-5.231,1.841-11.106,0.692-16.457c-0.329-1.534-0.781-3.034-1.338-4.493
				c1.861-0.312,3.729-0.592,5.601-0.822c1.912-0.235,3.824-0.369,5.742-0.511c-0.009,0.106-0.001,0.216,0.055,0.328
				C345.47,148.029,345.983,154.053,344.491,159.522z"/>
			<path style="fill:#D8BB30;" d="M328.69,148.409c-0.385-1.591-0.868-3.217-1.602-4.688c0.052-0.095,0.081-0.201,0.07-0.305
				c-0.038-0.374-0.555-0.691-0.873-0.396c-0.144,0.134-0.53,0.122-0.714,0.143c-0.249,0.027-0.496,0.051-0.746,0.065
				c-0.499,0.028-0.997,0.058-1.496,0.093c-0.997,0.069-1.991,0.155-2.985,0.249c-0.108,0.01-0.19,0.051-0.259,0.103
				c-0.296,0.099-0.529,0.391-0.389,0.768c2.029,5.461,2.584,11.411,1.583,17.151c-0.136,0.781-0.301,1.558-0.493,2.328
				c-0.203,0.813-0.536,1.624-0.607,2.46c-0.025,0.303,0.151,0.489,0.367,0.535c0.095,0.188,0.281,0.326,0.554,0.298
				c1.031-0.107,2.06-0.231,3.089-0.351c0.515-0.06,1.034-0.081,1.551-0.108c0.237-0.012,0.481-0.009,0.717-0.038
				c0.291-0.036,0.538-0.175,0.81-0.272c0.191-0.068,0.279-0.237,0.284-0.41c0.082-0.009,0.162-0.032,0.236-0.08
				c0.58-0.375,0.687-1.4,0.851-2.027c0.186-0.708,0.347-1.423,0.477-2.144c0.272-1.496,0.431-3.012,0.479-4.531
				C329.692,154.278,329.391,151.302,328.69,148.409z M328.003,160.95c-0.142,0.801-0.314,1.598-0.516,2.387
				c-0.101,0.393-0.209,0.785-0.328,1.173c-0.107,0.349-0.229,0.67-0.171,1.018c-0.217-0.041-0.43-0.086-0.657-0.07
				c-0.237,0.017-0.475,0.07-0.71,0.106c-0.513,0.078-1.025,0.161-1.542,0.205c-0.885,0.076-1.77,0.153-2.655,0.237
				c0.186-0.487,0.305-1.006,0.433-1.505c0.184-0.715,0.344-1.436,0.481-2.162c0.277-1.479,0.455-2.977,0.533-4.48
				c0.155-3.002-0.039-6.019-0.649-8.964c-0.305-1.469-0.707-2.914-1.199-4.331c0.802-0.09,1.604-0.18,2.404-0.287
				c0.495-0.066,0.99-0.137,1.484-0.209c0.227-0.033,0.453-0.059,0.682-0.08c0.125-0.012,0.336-0.051,0.521-0.054
				c0.467,1.353,0.981,2.681,1.352,4.067c0.381,1.423,0.651,2.875,0.819,4.338C328.615,155.202,328.504,158.115,328.003,160.95z"/>
			<path style="fill:#D8BB30;" d="M307.943,154.824c-3.794,0.055-6.593,2.7-9.829,4.271c-2.494,1.211-5.904,1.604-7.39-1.255
				c-0.725-1.396-2.041-2.246-3.56-1.352c-0.722,0.424-1.253,1.103-1.818,1.705c-0.606,0.645-1.238,1.266-1.904,1.849
				c-1.237,1.081-2.746,2.515-4.395,2.889c-0.575,0.13-1.234,0.108-1.745-0.215c-0.591-0.374-0.823-1.158-1.315-1.643
				c-0.552-0.543-1.334-0.752-2.075-0.488c-0.86,0.307-1.302,1.068-1.754,1.8c-0.359,0.581-0.884,1.082-1.6,0.684
				c-0.689-0.383-0.462-1.103-0.274-1.689c0.446-0.715-0.584-1.393-1.189-0.996c-0.882,0.578-1.077,1.691-0.814,2.675
				c-0.257,0.43-0.574,0.824-0.878,1.134c-0.749,0.763-1.733,1.24-2.804,1.312c-1.851,0.125-3.569-1.36-3.228-3.259
				c0.013-0.069,0.023-0.141,0.03-0.214c0.004-0.015,0.002-0.029,0.006-0.044c-0.001,0-0.002,0-0.004,0
				c0.006-0.072,0.015-0.142,0.012-0.22c-0.028-0.839-1.342-1.086-1.64-0.282c-0.288,0.779-0.331,1.55-0.186,2.263
				c-0.246,0.517-0.595,0.999-1.034,1.37c-0.91,0.769-2.1,1.059-3.265,0.83c-2.444-0.479-3.638-3.192-2.584-5.387
				c0.564-1.174-1.252-1.999-1.839-0.84c-1.698,3.352,0.361,7.521,4.108,8.077c1.715,0.255,3.429-0.262,4.647-1.509
				c0.265-0.271,0.497-0.578,0.7-0.903c0.878,1.205,2.37,1.992,4.014,1.912c1.536-0.074,3.01-0.898,3.995-2.056
				c0.241-0.283,0.457-0.593,0.651-0.917c0.071,0.076,0.136,0.16,0.215,0.224c1.305,1.062,3.293,0.61,4.182-0.742
				c0.227-0.345,0.719-1.76,1.267-1.634c0.206,0.047,0.398,0.537,0.491,0.696c0.209,0.356,0.409,0.695,0.702,0.992
				c1.241,1.255,3.231,1.231,4.743,0.531c1.668-0.772,3.137-2.035,4.489-3.263c0.662-0.602,1.302-1.227,1.911-1.883
				c0.341-0.368,1.213-1.638,1.728-1.015c0.428,0.518,0.585,1.225,1.017,1.756c0.505,0.622,1.142,1.115,1.86,1.469
				c1.43,0.705,3.141,0.82,4.684,0.494c4.256-0.899,7.39-4.967,11.858-5.029C309.486,156.904,309.293,154.805,307.943,154.824z"/>
			<path style="fill:#D8BB30;" d="M242.242,142.201c-0.502-0.565-1.309-0.853-1.975-1.182c-0.709-0.35-1.434-0.669-2.153-0.997
				c-1.44-0.657-2.893-1.281-4.347-1.906c-2.882-1.241-5.776-2.441-8.718-3.537c-0.905-0.337-1.282,1.119-0.381,1.454
				c2.937,1.09,5.875,2.23,8.719,3.548c1.391,0.645,2.776,1.307,4.146,1.997c0.572,0.288,1.14,0.586,1.712,0.875
				c-1.865,0.165-3.723,0.427-5.58,0.654c-2.556,0.313-5.112,0.625-7.668,0.936c-5.02,0.61-10.048,1.179-15.08,1.678
				c-2.724,0.271-5.465,0.449-8.183,0.774c-0.363-0.553-1.178-0.759-1.764-1.035c-0.834-0.391-1.667-0.783-2.501-1.174
				c-1.668-0.784-3.349-1.54-5.026-2.305c-2.65-1.208-5.252-2.508-7.863-3.791c1.675-0.21,3.348-0.44,5.023-0.641
				c2.557-0.307,5.114-0.604,7.675-0.873c5.03-0.528,10.062-1.039,15.097-1.526c2.879-0.279,5.785-0.467,8.635-0.972
				c0.954-0.169,0.805-1.536-0.164-1.494c-2.527,0.109-5.037,0.48-7.546,0.787c-2.556,0.313-5.112,0.625-7.668,0.936
				c-5.02,0.61-10.048,1.179-15.08,1.678c-2.88,0.286-5.78,0.464-8.651,0.827c-0.754,0.095-0.85,0.974-0.43,1.376
				c0.064,0.086,0.15,0.163,0.273,0.221c3.377,1.588,6.791,3.085,10.135,4.743c1.648,0.817,3.293,1.641,4.95,2.439
				c0.829,0.399,1.658,0.799,2.487,1.198c0.426,0.205,0.858,0.491,1.304,0.627c0.08,0.347,0.355,0.645,0.817,0.602
				c2.517-0.234,5.02-0.634,7.529-0.935c2.557-0.307,5.114-0.604,7.675-0.873c5.031-0.528,10.062-1.039,15.097-1.526
				c2.879-0.279,5.785-0.467,8.635-0.971c0.26-0.046,0.432-0.184,0.533-0.356C242.443,143.357,242.589,142.592,242.242,142.201z"/>
			<path style="fill:#D8BB30;" d="M256.197,140.908c-0.593-0.496-1.339-0.753-2.035-1.076c-0.713-0.331-1.412-0.685-2.109-1.048
				c-1.391-0.725-2.757-1.498-4.114-2.284c-2.717-1.574-5.369-3.246-7.966-5.011c-0.841-0.572-1.644,0.822-0.785,1.382
				c2.627,1.711,5.302,3.355,8.018,4.921c1.321,0.762,2.66,1.492,3.995,2.229c0.687,0.379,1.376,0.751,2.057,1.139
				c0.683,0.389,1.4,0.907,2.172,1.086C256.147,142.412,256.839,141.444,256.197,140.908z"/>
			<path style="fill:#D8BB30;" d="M266.073,140.232c-0.507-0.694-1.337-0.937-2.097-1.297c-0.782-0.37-1.568-0.733-2.346-1.111
				c-1.554-0.755-3.085-1.556-4.616-2.356c-3.06-1.6-6.077-3.28-9.141-4.872c-0.968-0.503-1.816,0.973-0.84,1.48
				c3.067,1.593,6.179,3.096,9.25,4.681c1.494,0.771,2.986,1.545,4.46,2.355c0.756,0.415,1.503,0.849,2.253,1.275
				c0.725,0.411,1.511,1.059,2.365,1.071C265.927,141.465,266.445,140.742,266.073,140.232z"/>
			<path style="fill:#D8BB30;" d="M275.095,138.317c-2.561-1.274-5.167-2.465-7.737-3.724c-2.571-1.259-5.146-2.508-7.739-3.721
				c-0.924-0.432-1.725,0.924-0.793,1.397c2.551,1.295,5.119,2.554,7.692,3.803c2.572,1.249,5.115,2.567,7.694,3.799
				C275.24,140.364,276.133,138.833,275.095,138.317z"/>
			<path style="fill:#D8BB30;" d="M288.856,137.292c-1.741-0.897-3.62-1.58-5.406-2.388c-1.792-0.81-3.592-1.607-5.355-2.478
				c-3.52-1.738-6.999-3.552-10.503-5.322c-0.929-0.469-1.737,0.97-0.798,1.405c3.57,1.654,7.16,3.262,10.715,4.948
				c1.732,0.822,3.429,1.715,5.132,2.594c1.774,0.917,3.507,1.986,5.324,2.81C289.004,139.333,289.905,137.832,288.856,137.292z"/>
			<path style="fill:#D8BB30;" d="M298.039,135.827c-1.358-0.745-2.838-1.312-4.259-1.926c-1.43-0.617-2.848-1.253-4.26-1.912
				c-2.811-1.311-5.633-2.603-8.481-3.832c-1.04-0.448-1.669,1.038-0.591,1.452c2.886,1.107,5.745,2.273,8.561,3.549
				c1.375,0.623,2.721,1.296,4.047,2.018c1.358,0.739,2.685,1.576,4.079,2.244C298.184,137.923,299.085,136.4,298.039,135.827z"/>
		</g>
	</g>
	<g>
		<path style="fill:#D8BB30;" d="M143.213,168.991c-4.936-2.22-6.534-4.575-7.789-10.089c-0.04-0.177-0.118-0.289-0.207-0.37
			c-0.291-0.547-1.533-0.896-1.477,0.403c0.252,5.884-1.854,9.237-6.019,11.584c-0.668,0.376-0.574,1.611,0.382,1.686
			c2.029,0.16,3.956,1.315,5.331,3.231c0.602,0.839,1.069,1.834,1.395,2.888c0.165,0.533,0.303,1.088,0.392,1.65
			c0.08,0.507,0.093,0.976,0.324,1.338c0.064,0.326,0.267,0.602,0.611,0.572c0.101-0.009,0.203-0.018,0.304-0.027
			c0.247-0.021,0.548-0.299,0.566-0.64c0.127-2.434,0.772-4.79,1.744-6.94c0.748-1.654,2.706-2.957,4.195-3.397
			C144.211,170.512,143.687,169.204,143.213,168.991z"/>
		<path style="fill:#D8BB30;" d="M381.455,287.734c-4.937-2.22-6.534-4.575-7.789-10.089c-0.04-0.177-0.118-0.289-0.207-0.37
			c-0.291-0.547-1.533-0.896-1.477,0.403c0.252,5.884-1.854,9.237-6.019,11.584c-0.668,0.376-0.574,1.611,0.382,1.686
			c2.029,0.16,3.956,1.315,5.331,3.231c0.602,0.839,1.069,1.834,1.395,2.888c0.165,0.533,0.303,1.088,0.392,1.65
			c0.08,0.507,0.093,0.976,0.324,1.338c0.064,0.326,0.267,0.602,0.611,0.572c0.101-0.009,0.203-0.018,0.304-0.027
			c0.247-0.022,0.548-0.299,0.566-0.64c0.127-2.434,0.772-4.79,1.744-6.94c0.748-1.654,2.706-2.957,4.195-3.397
			C382.453,289.254,381.929,287.947,381.455,287.734z"/>
		<path style="fill:#D8BB30;" d="M386.245,179.788c-3.436-1.545-4.548-3.184-5.421-7.021c-0.028-0.123-0.082-0.201-0.144-0.258
			c-0.203-0.381-1.067-0.624-1.028,0.28c0.176,4.095-1.29,6.428-4.189,8.062c-0.465,0.262-0.4,1.121,0.266,1.173
			c1.412,0.111,2.753,0.915,3.71,2.249c0.419,0.584,0.744,1.276,0.971,2.009c0.115,0.371,0.211,0.757,0.273,1.148
			c0.056,0.353,0.065,0.679,0.226,0.931c0.045,0.227,0.186,0.419,0.425,0.398c0.07-0.006,0.141-0.012,0.212-0.018
			c0.172-0.015,0.381-0.208,0.394-0.446c0.088-1.694,0.537-3.334,1.214-4.83c0.52-1.151,1.883-2.058,2.92-2.364
			C386.94,180.846,386.575,179.936,386.245,179.788z"/>
		<path style="fill:#D8BB30;" d="M125.69,280.014c-3.436-1.545-4.548-3.184-5.421-7.021c-0.028-0.123-0.082-0.201-0.144-0.258
			c-0.203-0.381-1.067-0.624-1.028,0.28c0.176,4.095-1.29,6.428-4.189,8.062c-0.465,0.262-0.4,1.121,0.266,1.173
			c1.412,0.111,2.753,0.915,3.71,2.249c0.419,0.584,0.744,1.277,0.971,2.01c0.115,0.371,0.211,0.757,0.273,1.148
			c0.056,0.353,0.065,0.679,0.226,0.931c0.045,0.227,0.186,0.419,0.426,0.398c0.07-0.006,0.141-0.012,0.211-0.018
			c0.172-0.015,0.381-0.208,0.394-0.446c0.088-1.694,0.537-3.334,1.214-4.83c0.52-1.151,1.883-2.058,2.92-2.364
			C126.385,281.072,126.02,280.163,125.69,280.014z"/>
		<path style="fill:#D8BB30;" d="M94.213,223.659c-2.152-0.968-2.849-1.995-3.396-4.399c-0.018-0.077-0.052-0.126-0.09-0.162
			c-0.127-0.239-0.668-0.391-0.644,0.176c0.11,2.566-0.809,4.027-2.624,5.051c-0.291,0.164-0.25,0.702,0.166,0.735
			c0.884,0.07,1.725,0.573,2.324,1.409c0.262,0.366,0.466,0.8,0.608,1.259c0.072,0.232,0.132,0.474,0.171,0.719
			c0.035,0.221,0.041,0.425,0.141,0.583c0.028,0.142,0.116,0.263,0.267,0.249c0.044-0.004,0.088-0.008,0.132-0.012
			c0.108-0.009,0.239-0.13,0.247-0.279c0.055-1.061,0.337-2.089,0.76-3.026c0.326-0.721,1.18-1.289,1.829-1.481
			C94.648,224.322,94.42,223.752,94.213,223.659z"/>
		<path style="fill:#D8BB30;" d="M332.986,106.817c-2.894-1.301-3.83-2.682-4.566-5.914c-0.024-0.104-0.069-0.169-0.121-0.217
			c-0.171-0.321-0.898-0.525-0.866,0.236c0.148,3.449-1.087,5.414-3.528,6.79c-0.391,0.221-0.337,0.944,0.224,0.988
			c1.189,0.094,2.319,0.771,3.124,1.894c0.353,0.492,0.626,1.075,0.818,1.693c0.097,0.313,0.178,0.638,0.23,0.967
			c0.047,0.297,0.055,0.572,0.19,0.784c0.038,0.191,0.156,0.353,0.358,0.335c0.059-0.005,0.119-0.01,0.178-0.016
			c0.145-0.013,0.321-0.175,0.332-0.375c0.074-1.427,0.452-2.808,1.022-4.068c0.438-0.969,1.586-1.733,2.459-1.991
			C333.571,107.708,333.263,106.942,332.986,106.817z"/>
	</g>
</g>
<g id="PHOTOS">
</g>
<g id="TEXTS">
</g>
</svg>
