<?xml version="1.0" encoding="UTF-8" standalone="no"?>
<!DOCTYPE svg PUBLIC "-//W3C//DTD SVG 1.1//EN" "http://www.w3.org/Graphics/SVG/1.1/DTD/svg11.dtd">
<!-- Created with Vectornator (http://vectornator.io/) -->
<svg height="100%" stroke-miterlimit="10" style="fill-rule:nonzero;clip-rule:evenodd;stroke-linecap:round;stroke-linejoin:round;" version="1.1" viewBox="0 0 500 500" width="100%" xml:space="preserve" xmlns="http://www.w3.org/2000/svg" xmlns:vectornator="http://vectornator.io" xmlns:xlink="http://www.w3.org/1999/xlink">
<defs>
<linearGradient gradientTransform="matrix(-1.8148 -22.5043 -22.5043 1.8148 115.086 297.814)" gradientUnits="userSpaceOnUse" id="LinearGradient" x1="0" x2="1" y1="0" y2="0">
<stop offset="0" stop-color="#5b595d"/>
<stop offset="1" stop-color="#6b637d"/>
</linearGradient>
</defs>
<g id="BACKGROUND" vectornator:layerName="BACKGROUND" visibility="hidden"/>
<g id="OBJECTS" vectornator:layerName="OBJECTS">
<path d="M39.085 452.767C43.616 459.164 70.367 462.337 83.56 462.976C139.168 465.668 195.098 466.075 250.807 464.218C280.501 463.228 350.2 472.787 434.719 459.313C441.517 458.229 480.471 445.916 450.155 441.562C394.594 433.583 314.467 432.727 193.838 431.631C187.607 431.574 160.672 433.321 130.069 435.715C106.635 437.549 31.039 441.407 39.085 452.767Z" fill="#e8dedc" fill-rule="nonzero" opacity="1" stroke="none" vectornator:layerName="path"/>
<g opacity="1" vectornator:layerName="g">
<g opacity="1" vectornator:layerName="g">
<g opacity="1" vectornator:layerName="g">
<path d="M287.652 143.951L287.652 121.64L221.452 121.64C215.291 121.64 210.297 126.634 210.297 132.795L210.297 132.795C210.297 138.956 215.291 143.95 221.452 143.95L287.652 143.95L287.652 143.951Z" fill="#707070" fill-rule="nonzero" opacity="1" stroke="none" vectornator:layerName="path"/>
<path d="M228.922 121.582L270.988 121.582C264.827 121.582 259.833 126.576 259.833 132.737C259.833 138.898 264.828 143.892 270.988 143.892L228.921 143.892C222.76 143.892 217.766 138.898 217.766 132.737L217.766 132.737C217.767 126.576 222.761 121.582 228.922 121.582Z" fill="#999999" fill-rule="nonzero" opacity="1" stroke="none" vectornator:layerName="path"/>
<path d="M366.388 141.247L366.388 143.95L221.452 143.95C218.673 143.95 216.138 142.928 214.185 141.247L366.388 141.247Z" fill="#e6e9ec" fill-rule="nonzero" opacity="1" stroke="none" vectornator:layerName="path"/>
</g>
<g opacity="1" vectornator:layerName="g">
<path d="M366.388 143.951L366.388 121.64L280.668 121.64C274.507 121.64 269.513 126.634 269.513 132.795L269.513 132.795C269.513 138.956 274.507 143.95 280.668 143.95L366.388 143.95L366.388 143.951Z" fill="#707070" fill-rule="nonzero" opacity="1" stroke="none" vectornator:layerName="path"/>
<g opacity="1" vectornator:layerName="path">
<clipPath clip-rule="nonzero" id="ClipPath">
<path d="M366.388 143.951L366.388 121.64L280.668 121.64C274.507 121.64 269.513 126.634 269.513 132.795L269.513 132.795C269.513 138.956 274.507 143.95 280.668 143.95L366.388 143.95L366.388 143.951Z"/>
</clipPath>
<g clip-path="url(#ClipPath)">
<path d="M366.388 143.951L366.388 121.64L280.668 121.64C274.507 121.64 269.513 126.634 269.513 132.795L269.513 132.795C269.513 138.956 274.507 143.95 280.668 143.95L366.388 143.95L366.388 143.951Z" fill="#8a8a8a" fill-rule="nonzero" opacity="1" stroke="none" vectornator:layerName="path"/>
</g>
</g>
</g>
<g opacity="1" vectornator:layerName="g">
<g opacity="1" vectornator:layerName="path">
<clipPath clip-rule="nonzero" id="ClipPath_2">
<path d="M366.413 124.13L281.399 124.13C276.645 124.13 272.792 127.984 272.792 132.737L272.792 132.737C272.792 137.491 276.646 141.344 281.399 141.344L366.413 141.344L366.413 124.13Z"/>
</clipPath>
<g clip-path="url(#ClipPath_2)">
<path d="M272.791 124.13L366.413 124.13L366.413 124.13L366.413 141.345L366.413 141.345L272.791 141.345L272.791 141.345L272.791 124.13L272.791 124.13Z" fill="#f1e7db" fill-rule="nonzero" opacity="1" stroke="none" vectornator:layerName="rect"/>
</g>
</g>
<g opacity="1" vectornator:layerName="path">
<clipPath clip-rule="nonzero" id="ClipPath_3">
<path d="M366.413 124.13L281.399 124.13C276.645 124.13 272.792 127.984 272.792 132.737L272.792 132.737C272.792 137.491 276.646 141.344 281.399 141.344L366.413 141.344L366.413 124.13Z"/>
</clipPath>
<g clip-path="url(#ClipPath_3)">
<path d="M272.791 124.13L366.413 124.13L366.413 124.13L366.413 128.69L366.413 128.69L272.791 128.69L272.791 128.69L272.791 124.13L272.791 124.13Z" fill="#e6d9ca" fill-rule="nonzero" opacity="1" stroke="none" vectornator:layerName="rect"/>
</g>
</g>
<g opacity="1" vectornator:layerName="path">
<clipPath clip-rule="nonzero" id="ClipPath_4">
<path d="M366.413 124.13L281.399 124.13C276.645 124.13 272.792 127.984 272.792 132.737L272.792 132.737C272.792 137.491 276.646 141.344 281.399 141.344L366.413 141.344L366.413 124.13Z"/>
</clipPath>
<g clip-path="url(#ClipPath_4)">
<path d="M273.193 143.131L271.402 143.131L271.402 122.344L273.379 122.344C276.885 128.809 276.961 137.031 273.193 143.131Z" fill="#39354f" fill-rule="nonzero" opacity="1" stroke="none" vectornator:layerName="path"/>
</g>
</g>
</g>
</g>
<g opacity="1" vectornator:layerName="g">
<path d="M340.91 276.092L196.814 276.092C193.794 276.092 191.345 278.541 191.345 281.561L191.345 310.343C191.345 313.363 193.794 315.812 196.814 315.812L340.91 315.812L340.91 276.092Z" fill="#d9a524" fill-rule="nonzero" opacity="1" stroke="none" vectornator:layerName="path"/>
<path d="M340.91 279.89L340.91 276.092L196.814 276.092C194.377 276.092 192.314 277.687 191.607 279.89L340.91 279.89Z" fill="#ffe7d9" fill-rule="nonzero" opacity="1" stroke="none" vectornator:layerName="path"/>
<path d="M414.064 276.095L414.064 281.241L400.774 281.241L400.774 310.556L414.064 310.556L414.064 315.813L338.185 315.813C335.165 315.813 332.716 313.364 332.716 310.344L332.716 281.565C332.716 278.545 335.165 276.096 338.185 276.096L414.064 276.096L414.064 276.095Z" fill="#d58300" fill-rule="nonzero" opacity="1" stroke="none" vectornator:layerName="path"/>
<path d="M337.81 281.241L409.924 281.241L409.924 281.241L409.924 310.556L409.924 310.556L337.81 310.556L337.81 310.556L337.81 281.241L337.81 281.241Z" fill="#f1e7db" fill-rule="nonzero" opacity="1" stroke="none" vectornator:layerName="rect"/>
<path d="M337.81 281.241L409.924 281.241L409.924 281.241L409.924 290.608L409.924 290.608L337.81 290.608L337.81 290.608L337.81 281.241L337.81 281.241Z" fill="#e6d9ca" fill-rule="nonzero" opacity="1" stroke="none" vectornator:layerName="rect"/>
<path d="M337.81 281.562C339.285 281.973 342.895 285.284 342.895 295.899C342.895 307.852 337.81 310.556 337.81 310.556L337.81 281.562Z" fill="#39354f" fill-rule="nonzero" opacity="1" stroke="none" vectornator:layerName="path"/>
<path d="M203.84 285.925L321.229 285.925L321.229 285.925L321.229 306.848L321.229 306.848L203.84 306.848L203.84 306.848L203.84 285.925L203.84 285.925Z" fill="#d58300" fill-rule="nonzero" opacity="1" stroke="none" vectornator:layerName="rect"/>
</g>
<g opacity="1" vectornator:layerName="g">
<path d="M196.664 171.812L323.648 171.812C324.881 171.812 325.88 172.811 325.88 174.044L325.88 194.947C325.88 196.18 324.881 197.179 323.648 197.179L196.664 197.179L196.664 171.812Z" fill="#76b2d2" fill-rule="nonzero" opacity="1" stroke="none" vectornator:layerName="path"/>
<path d="M317.333 190.639L210.611 190.639L210.611 190.639L210.611 177.001L210.611 177.001L317.333 177.001L317.333 177.001L317.333 190.639L317.333 190.639Z" fill="#95cceb" fill-rule="nonzero" opacity="1" stroke="none" vectornator:layerName="rect"/>
<path d="M145.999 171.813L145.999 173.783L176.978 173.783L176.978 195.153L145.999 195.153L145.999 197.18L197.579 197.18C199.4 197.18 200.876 195.704 200.876 193.883L200.876 175.112C200.876 173.291 199.4 171.815 197.579 171.815L145.999 171.815L145.999 171.813Z" fill="#679ab6" fill-rule="nonzero" opacity="1" stroke="none" vectornator:layerName="path"/>
<path d="M198.258 195.152L148.127 195.152L148.127 195.152L148.127 173.782L148.127 173.782L198.258 173.782L198.258 173.782L198.258 195.152L198.258 195.152Z" fill="#f1e7db" fill-rule="nonzero" opacity="1" stroke="none" vectornator:layerName="rect"/>
<path d="M198.258 191.274L148.127 191.274L148.127 191.274L148.127 186.092L148.127 186.092L198.258 186.092L198.258 186.092L198.258 191.274L198.258 191.274Z" fill="#e6d9ca" fill-rule="nonzero" opacity="1" stroke="none" vectornator:layerName="rect"/>
<path d="M198.257 173.948C197.396 175.164 195.964 176.347 195.964 183.518C195.964 191.085 197.534 194.39 197.915 195.153L198.257 195.153L198.257 173.948Z" fill="#3a3752" fill-rule="nonzero" opacity="1" stroke="none" vectornator:layerName="path"/>
<path d="M145.999 173.947L196.664 173.947L200.876 173.947L325.871 173.947C325.819 172.76 324.848 171.811 323.648 171.811L196.664 171.811L196.664 171.813L145.999 171.813L145.999 173.947Z" fill="#ececec" fill-rule="nonzero" opacity="1" stroke="none" vectornator:layerName="path"/>
</g>
<g opacity="1" vectornator:layerName="g">
<path d="M305.487 89.214L202.317 89.214C201.084 89.214 200.085 90.213 200.085 91.446L200.085 119.349C200.085 120.582 201.084 121.582 202.317 121.582L305.487 121.582L305.487 89.214Z" fill="#76b2d2" fill-rule="nonzero" opacity="1" stroke="none" vectornator:layerName="path"/>
<path d="M208.631 94.404L291.539 94.404L291.539 94.404L291.539 115.042L291.539 115.042L208.631 115.042L208.631 115.042L208.631 94.404L208.631 94.404Z" fill="#95cceb" fill-rule="nonzero" opacity="1" stroke="none" vectornator:layerName="rect"/>
<path d="M356.152 89.215L356.152 91.185L325.173 91.185L325.173 119.555L356.152 119.555L356.152 121.582L304.572 121.582C302.751 121.582 301.275 120.106 301.275 118.285L301.275 92.513C301.275 90.692 302.751 89.216 304.572 89.216L356.152 89.216L356.152 89.215Z" fill="#679ab6" fill-rule="nonzero" opacity="1" stroke="none" vectornator:layerName="path"/>
<path d="M303.893 91.185L354.024 91.185L354.024 91.185L354.024 119.555L354.024 119.555L303.893 119.555L303.893 119.555L303.893 91.185L303.893 91.185Z" fill="#f1e7db" fill-rule="nonzero" opacity="1" stroke="none" vectornator:layerName="rect"/>
<path d="M303.893 91.185L354.024 91.185L354.024 91.185L354.024 96.367L354.024 96.367L303.893 96.367L303.893 96.367L303.893 91.185L303.893 91.185Z" fill="#e6d9ca" fill-rule="nonzero" opacity="1" stroke="none" vectornator:layerName="rect"/>
<path d="M303.893 91.35C304.754 92.566 307.186 98.749 307.186 105.92C307.186 113.487 304.616 118.792 304.235 119.555L303.893 119.555L303.893 91.35Z" fill="#3a3752" fill-rule="nonzero" opacity="1" stroke="none" vectornator:layerName="path"/>
<path d="M356.152 91.35L305.487 91.35L301.275 91.35L200.094 91.35C200.146 90.163 201.117 89.214 202.317 89.214L305.487 89.214L305.487 89.216L356.152 89.216C356.152 89.216 356.152 91.35 356.152 91.35Z" fill="#ececec" fill-rule="nonzero" opacity="1" stroke="none" vectornator:layerName="path"/>
</g>
<g opacity="1" vectornator:layerName="g">
<g opacity="1" vectornator:layerName="g">
<path d="M323.385 387.837L323.385 353.285L220.861 353.285C211.32 353.285 203.585 361.02 203.585 370.561L203.585 370.561C203.585 380.102 211.32 387.837 220.861 387.837L323.385 387.837Z" fill="#7ab4bf" fill-rule="nonzero" opacity="1" stroke="none" vectornator:layerName="path"/>
<path d="M227.784 353.285L301.813 353.285C292.272 353.285 284.537 361.02 284.537 370.561C284.537 380.102 292.272 387.837 301.813 387.837L227.784 387.837C218.243 387.837 210.508 380.102 210.508 370.561L210.508 370.561C210.508 361.02 218.243 353.285 227.784 353.285Z" fill="#b3d9e1" fill-rule="nonzero" opacity="1" stroke="none" vectornator:layerName="path"/>
<path d="M390.78 357.471L390.78 353.285L228.283 353.285L317.786 357.471L390.78 357.471Z" fill="#e6e9ec" fill-rule="nonzero" opacity="1" stroke="none" vectornator:layerName="polygon"/>
</g>
<g opacity="1" vectornator:layerName="path">
<clipPath clip-rule="nonzero" id="ClipPath_5">
<path d="M390.78 387.837L390.78 353.285L312.57 353.285C303.029 353.285 295.294 361.02 295.294 370.561L295.294 370.561C295.294 380.102 303.029 387.837 312.57 387.837L390.78 387.837Z"/>
</clipPath>
<g clip-path="url(#ClipPath_5)">
<path d="M390.78 387.837L390.78 353.285L312.57 353.285C303.029 353.285 295.294 361.02 295.294 370.561L295.294 370.561C295.294 380.102 303.029 387.837 312.57 387.837L390.78 387.837Z" fill="#6a9ca6" fill-rule="nonzero" opacity="1" stroke="none" vectornator:layerName="path"/>
</g>
</g>
<g opacity="1" vectornator:layerName="g">
<g opacity="1" vectornator:layerName="path">
<clipPath clip-rule="nonzero" id="ClipPath_6">
<path d="M390.818 357.141L313.7 357.141C306.338 357.141 300.37 363.109 300.37 370.471L300.37 370.471C300.37 377.833 306.338 383.801 313.7 383.801L390.818 383.801L390.818 357.141Z"/>
</clipPath>
<g clip-path="url(#ClipPath_6)">
<path d="M300.37 357.141L390.818 357.141L390.818 357.141L390.818 383.801L390.818 383.801L300.37 383.801L300.37 383.801L300.37 357.141L300.37 357.141Z" fill="#f1e7db" fill-rule="nonzero" opacity="1" stroke="none" vectornator:layerName="rect"/>
</g>
</g>
<g opacity="1" vectornator:layerName="path">
<clipPath clip-rule="nonzero" id="ClipPath_7">
<path d="M390.818 357.141L313.7 357.141C306.338 357.141 300.37 363.109 300.37 370.471L300.37 370.471C300.37 377.833 306.338 383.801 313.7 383.801L390.818 383.801L390.818 357.141Z"/>
</clipPath>
<g clip-path="url(#ClipPath_7)">
<path d="M300.37 355.378L390.818 355.378L390.818 355.378L390.818 362.706L390.818 362.706L300.37 362.706L300.37 362.706L300.37 355.378L300.37 355.378Z" fill="#d6cabc" fill-rule="nonzero" opacity="0.76" stroke="none" vectornator:layerName="rect"/>
</g>
</g>
<g opacity="1" vectornator:layerName="path">
<clipPath clip-rule="nonzero" id="ClipPath_8">
<path d="M390.818 357.141L313.7 357.141C306.338 357.141 300.37 363.109 300.37 370.471L300.37 370.471C300.37 377.833 306.338 383.801 313.7 383.801L390.818 383.801L390.818 357.141Z"/>
</clipPath>
<g clip-path="url(#ClipPath_8)">
<path d="M300.993 386.568L298.219 386.568L298.219 354.375L301.281 354.375C306.71 364.387 306.829 377.121 300.993 386.568Z" fill="#3a3752" fill-rule="nonzero" opacity="1" stroke="none" vectornator:layerName="path"/>
</g>
</g>
</g>
</g>
<g opacity="1" vectornator:layerName="g">
<g opacity="1" vectornator:layerName="g">
<path d="M299.621 448.811L299.621 412.25L190.917 412.25C186.573 412.25 183.052 415.771 183.052 420.115L183.052 440.945C183.052 445.289 186.573 448.81 190.917 448.81L299.621 448.81L299.621 448.811Z" fill="#675fa9" fill-rule="nonzero" opacity="1" stroke="none" vectornator:layerName="path"/>
<path d="M205.061 412.25L214.706 412.25C209.8 412.25 205.824 416.227 205.824 421.132L205.824 439.928C205.824 444.834 209.801 448.81 214.706 448.81L205.061 448.81C199.576 448.81 195.13 444.364 195.13 438.879L195.13 422.18C195.131 416.696 199.577 412.25 205.061 412.25Z" fill="#4b4679" fill-rule="nonzero" opacity="1" stroke="none" vectornator:layerName="path"/>
<path d="M270.748 412.25L280.393 412.25C275.487 412.25 271.511 416.227 271.511 421.132L271.511 439.928C271.511 444.834 275.488 448.81 280.393 448.81L270.748 448.81C265.263 448.81 260.817 444.364 260.817 438.879L260.817 422.18C260.817 416.696 265.263 412.25 270.748 412.25Z" fill="#4b4679" fill-rule="nonzero" opacity="1" stroke="none" vectornator:layerName="path"/>
</g>
<g opacity="1" vectornator:layerName="path">
<clipPath clip-rule="nonzero" id="ClipPath_9">
<path d="M335.507 497.976L372.068 497.976L372.068 373.065C372.068 367.553 367.599 363.084 362.087 363.084L345.488 363.084C339.976 363.084 335.507 367.553 335.507 373.065L335.507 497.976Z"/>
</clipPath>
<g clip-path="url(#ClipPath_9)">
<path d="M421.234 412.25L421.234 448.811L421.234 448.811L286.342 448.811L286.342 448.811L286.342 412.25L286.342 412.25L421.234 412.25L421.234 412.25Z" fill="#8077c7" fill-rule="nonzero" opacity="1" stroke="none" vectornator:layerName="rect"/>
</g>
</g>
<g opacity="1" vectornator:layerName="g">
<g opacity="1" vectornator:layerName="path">
<clipPath clip-rule="nonzero" id="ClipPath_10">
<path d="M421.279 417.081L298.681 417.081C294.99 417.081 291.999 420.073 291.999 423.763L291.999 437.812C291.999 441.503 294.991 444.494 298.681 444.494L421.279 444.494L421.279 417.081Z"/>
</clipPath>
<g clip-path="url(#ClipPath_10)">
<path d="M291.998 417.081L421.278 417.081L421.278 417.081L421.278 444.495L421.278 444.495L291.998 444.495L291.998 444.495L291.998 417.081L291.998 417.081Z" fill="#f1e7db" fill-rule="nonzero" opacity="1" stroke="none" vectornator:layerName="rect"/>
</g>
</g>
<g opacity="1" vectornator:layerName="path">
<clipPath clip-rule="nonzero" id="ClipPath_11">
<path d="M421.279 417.081L298.681 417.081C294.99 417.081 291.999 420.073 291.999 423.763L291.999 437.812C291.999 441.503 294.991 444.494 298.681 444.494L421.279 444.494L421.279 417.081Z"/>
</clipPath>
<g clip-path="url(#ClipPath_11)">
<path d="M291.998 416.518L421.278 416.518L421.278 416.518L421.278 425.354L421.278 425.354L291.998 425.354L291.998 425.354L291.998 416.518L291.998 416.518Z" fill="#d6cabc" fill-rule="nonzero" opacity="0.76" stroke="none" vectornator:layerName="rect"/>
</g>
</g>
<g opacity="1" vectornator:layerName="path">
<clipPath clip-rule="nonzero" id="ClipPath_12">
<path d="M421.279 417.081L298.681 417.081C294.99 417.081 291.999 420.073 291.999 423.763L291.999 437.812C291.999 441.503 294.991 444.494 298.681 444.494L421.279 444.494L421.279 417.081Z"/>
</clipPath>
<g clip-path="url(#ClipPath_12)">
<path d="M290.989 417.082L290.989 444.496C290.989 444.496 297.516 440.966 297.516 428.507C297.515 417.16 290.989 417.082 290.989 417.082Z" fill="#3a3752" fill-rule="nonzero" opacity="1" stroke="none" vectornator:layerName="path"/>
</g>
</g>
</g>
<path d="M190.917 412.25L286.342 412.25L299.621 412.25L421.233 412.25L421.233 416.08L299.621 416.08L286.342 416.08L184.175 416.08C185.549 413.788 188.05 412.25 190.917 412.25Z" fill="#e6e0ec" fill-rule="nonzero" opacity="1" stroke="none" vectornator:layerName="path"/>
<path d="M421.234 445.228L421.234 448.81L190.917 448.81C188.154 448.81 185.728 447.382 184.326 445.228L421.234 445.228Z" fill="#e6e0ec" fill-rule="nonzero" opacity="1" stroke="none" vectornator:layerName="path"/>
</g>
<g opacity="1" vectornator:layerName="g">
<g opacity="1" vectornator:layerName="g">
<path d="M278.118 143.951L278.118 171.839L195.199 171.839C191.886 171.839 189.2 169.153 189.2 165.84L189.2 149.95C189.2 146.636 191.886 143.951 195.199 143.951L278.118 143.951Z" fill="#db902e" fill-rule="nonzero" opacity="1" stroke="none" vectornator:layerName="path"/>
<path d="M205.811 171.839L252.31 171.839C248.568 171.839 245.535 168.805 245.535 165.064L245.535 150.726C245.535 146.984 248.569 143.951 252.31 143.951L205.811 143.951C201.627 143.951 198.236 147.342 198.236 151.526L198.236 164.264C198.236 168.447 201.628 171.839 205.811 171.839Z" fill="#e3b84c" fill-rule="nonzero" opacity="1" stroke="none" vectornator:layerName="path"/>
</g>
<g opacity="1" vectornator:layerName="path">
<clipPath clip-rule="nonzero" id="ClipPath_13">
<path d="M295.705 116.234L323.593 116.234L323.593 191.941C323.593 196.146 320.184 199.554 315.98 199.554L303.319 199.554C299.114 199.554 295.706 196.145 295.706 191.941L295.706 116.234L295.705 116.234Z"/>
</clipPath>
<g clip-path="url(#ClipPath_13)">
<path d="M267.989 171.838L267.989 143.95L267.989 143.95L351.309 143.95L351.309 143.95L351.309 171.838L351.309 171.838L267.989 171.838L267.989 171.838Z" fill="#e3b84c" fill-rule="nonzero" opacity="1" stroke="none" vectornator:layerName="rect"/>
</g>
</g>
<g opacity="1" vectornator:layerName="g">
<g opacity="1" vectornator:layerName="path">
<clipPath clip-rule="nonzero" id="ClipPath_14">
<path d="M351.343 168.153L277.4 168.153C274.585 168.153 272.303 165.871 272.303 163.056L272.303 152.34C272.303 149.525 274.585 147.243 277.4 147.243L351.342 147.243L351.342 168.153L351.343 168.153Z"/>
</clipPath>
<g clip-path="url(#ClipPath_14)">
<path d="M272.303 147.242L351.343 147.242L351.343 147.242L351.343 168.153L351.343 168.153L272.303 168.153L272.303 168.153L272.303 147.242L272.303 147.242Z" fill="#f1e7db" fill-rule="nonzero" opacity="1" stroke="none" vectornator:layerName="rect"/>
</g>
</g>
<g opacity="1" vectornator:layerName="path">
<clipPath clip-rule="nonzero" id="ClipPath_15">
<path d="M351.343 168.153L277.4 168.153C274.585 168.153 272.303 165.871 272.303 163.056L272.303 152.34C272.303 149.525 274.585 147.243 277.4 147.243L351.342 147.243L351.342 168.153L351.343 168.153Z"/>
</clipPath>
<g clip-path="url(#ClipPath_15)">
<path d="M272.303 147.242L351.343 147.242L351.343 147.242L351.343 153.982L351.343 153.982L272.303 153.982L272.303 153.982L272.303 147.242L272.303 147.242Z" fill="#d6cabc" fill-rule="nonzero" opacity="0.76" stroke="none" vectornator:layerName="rect"/>
</g>
</g>
<g opacity="1" vectornator:layerName="path">
<clipPath clip-rule="nonzero" id="ClipPath_16">
<path d="M351.343 168.153L277.4 168.153C274.585 168.153 272.303 165.871 272.303 163.056L272.303 152.34C272.303 149.525 274.585 147.243 277.4 147.243L351.342 147.243L351.342 168.153L351.343 168.153Z"/>
</clipPath>
<g clip-path="url(#ClipPath_16)">
<path d="M271.533 168.153L271.533 147.242C271.533 147.242 277.4 147.243 276.512 159.439C275.882 168.07 271.533 168.153 271.533 168.153Z" fill="#3a3752" fill-rule="nonzero" opacity="1" stroke="none" vectornator:layerName="path"/>
</g>
</g>
</g>
</g>
<g opacity="1" vectornator:layerName="g">
<g opacity="1" vectornator:layerName="g">
<path d="M273.102 412.61L273.102 387.838L346.607 387.838C353.448 387.838 358.993 393.384 358.993 400.224L358.993 400.224C358.993 407.065 353.447 412.61 346.607 412.61C346.607 412.61 273.102 412.61 273.102 412.61Z" fill="#64704d" fill-rule="nonzero" opacity="1" stroke="none" vectornator:layerName="path"/>
<path d="M339.134 387.837L331.545 387.837C338.386 387.837 343.931 393.382 343.931 400.223C343.931 407.064 338.385 412.609 331.545 412.609L339.134 412.609C345.975 412.609 351.52 407.064 351.52 400.223L351.52 400.223C351.52 393.383 345.975 387.837 339.134 387.837Z" fill="#808f62" fill-rule="nonzero" opacity="1" stroke="none" vectornator:layerName="path"/>
<path d="M298.979 387.837L291.39 387.837C298.231 387.837 303.776 393.382 303.776 400.223C303.776 407.064 298.23 412.609 291.39 412.609L298.979 412.609C305.82 412.609 311.365 407.064 311.365 400.223L311.365 400.223C311.365 393.383 305.819 387.837 298.979 387.837Z" fill="#808f62" fill-rule="nonzero" opacity="1" stroke="none" vectornator:layerName="path"/>
<path d="M176.521 390.839L176.521 387.837L341.287 387.837L277.116 390.839L176.521 390.839Z" fill="#e6e9ec" fill-rule="nonzero" opacity="1" stroke="none" vectornator:layerName="polygon"/>
</g>
<g opacity="1" vectornator:layerName="path">
<clipPath clip-rule="nonzero" id="ClipPath_17">
<path d="M176.521 412.61L176.521 387.838L280.856 387.838C287.697 387.838 293.242 393.384 293.242 400.224L293.242 400.224C293.242 407.065 287.696 412.61 280.856 412.61C280.856 412.61 176.521 412.61 176.521 412.61Z"/>
</clipPath>
<g clip-path="url(#ClipPath_17)">
<path d="M176.521 412.61L176.521 387.838L280.856 387.838C287.697 387.838 293.242 393.384 293.242 400.224L293.242 400.224C293.242 407.065 287.696 412.61 280.856 412.61C280.856 412.61 176.521 412.61 176.521 412.61Z" fill="#808f62" fill-rule="nonzero" opacity="1" stroke="none" vectornator:layerName="path"/>
</g>
</g>
<g opacity="1" vectornator:layerName="g">
<g opacity="1" vectornator:layerName="path">
<clipPath clip-rule="nonzero" id="ClipPath_18">
<path d="M289.603 409.716L186.051 409.716C180.773 409.716 176.494 405.437 176.494 400.159L176.494 400.159C176.494 394.881 180.773 390.602 186.051 390.602L289.603 390.602L289.603 409.716Z"/>
</clipPath>
<g clip-path="url(#ClipPath_18)">
<path d="M289.603 409.716L176.494 409.716L176.494 409.716L176.494 390.602L176.494 390.602L289.603 390.602L289.603 390.602L289.603 409.716L289.603 409.716Z" fill="#f1e7db" fill-rule="nonzero" opacity="1" stroke="none" vectornator:layerName="rect"/>
</g>
</g>
<g opacity="1" vectornator:layerName="path">
<clipPath clip-rule="nonzero" id="ClipPath_19">
<path d="M289.603 393.509L186.051 393.509C180.773 393.509 176.494 389.23 176.494 383.952L176.494 383.952C176.494 378.674 180.773 374.395 186.051 374.395L289.603 374.395L289.603 393.509Z"/>
</clipPath>
<g clip-path="url(#ClipPath_19)">
<path d="M289.603 394.168L176.494 394.168L176.494 394.168L176.494 389.942L176.494 389.942L289.603 389.942L289.603 389.942L289.603 394.168L289.603 394.168Z" fill="#ece6e8" fill-rule="nonzero" opacity="1" stroke="none" vectornator:layerName="rect"/>
</g>
</g>
<g opacity="1" vectornator:layerName="path">
<clipPath clip-rule="nonzero" id="ClipPath_20">
<path d="M176.494 390.602L280.046 390.602C285.324 390.602 289.603 394.881 289.603 400.159L289.603 400.159C289.603 405.437 285.324 409.716 280.046 409.716L176.494 409.716L176.494 390.602Z"/>
</clipPath>
<g clip-path="url(#ClipPath_20)">
<path d="M289.156 411.7L291.145 411.7L291.145 388.619L288.95 388.619C285.057 395.797 284.972 404.927 289.156 411.7Z" fill="#3a3752" fill-rule="nonzero" opacity="1" stroke="none" vectornator:layerName="path"/>
</g>
</g>
</g>
</g>
<g opacity="1" vectornator:layerName="g">
<path d="M404.916 353.286L242.926 353.286L242.926 353.286L242.926 315.782L242.926 315.782L404.916 315.782L404.916 315.782L404.916 353.286L404.916 353.286Z" fill="#9f6a64" fill-rule="nonzero" opacity="1" stroke="none" vectornator:layerName="rect"/>
<path d="M242.926 348.602L404.916 348.602L404.916 353.264C404.916 353.276 404.906 353.285 404.895 353.285L242.926 353.285L242.926 348.602Z" fill="#d8d3d9" fill-rule="nonzero" opacity="1" stroke="none" vectornator:layerName="path"/>
<path d="M242.926 315.782L404.916 315.782L404.916 318.109C404.916 318.117 404.909 318.124 404.901 318.124L242.926 318.124L242.926 315.782Z" fill="#e6e9ec" fill-rule="nonzero" opacity="1" stroke="none" vectornator:layerName="path"/>
<path d="M252.827 339.747L252.827 329.32C256.005 329.32 258.582 326.744 258.582 323.566L390.39 323.566C390.39 326.744 392.966 329.32 396.144 329.32L396.144 339.747C392.966 339.747 390.39 342.323 390.39 345.501L258.582 345.501C258.582 342.324 256.006 339.747 252.827 339.747Z" fill="#c9a39f" fill-rule="nonzero" opacity="1" stroke="none" vectornator:layerName="path"/>
</g>
<g opacity="1" vectornator:layerName="g">
<path d="M347.99 230.844L168.485 230.844L168.485 230.844L168.485 197.179L168.485 197.179L347.99 197.179L347.99 197.179L347.99 230.844L347.99 230.844Z" fill="#cf423d" fill-rule="nonzero" opacity="1" stroke="none" vectornator:layerName="rect"/>
<path d="M193.175 197.41L219.541 197.41L219.541 197.41L219.541 230.844L219.541 230.844L193.175 230.844L193.175 230.844L193.175 197.41L193.175 197.41Z" fill="#ab3632" fill-rule="nonzero" opacity="1" stroke="none" vectornator:layerName="rect"/>
<path d="M298.64 197.41L325.006 197.41L325.006 197.41L325.006 230.844L325.006 230.844L298.64 230.844L298.64 230.844L298.64 197.41L298.64 197.41Z" fill="#ab3632" fill-rule="nonzero" opacity="1" stroke="none" vectornator:layerName="rect"/>
<path d="M347.989 197.179L347.989 199.82C347.989 199.827 347.979 199.832 347.966 199.832L168.484 199.832L168.484 197.179" fill="#d8d3d9" fill-rule="nonzero" opacity="1" stroke="none" vectornator:layerName="path"/>
</g>
<g opacity="1" vectornator:layerName="g">
<path d="M367.658 276.16L162.624 276.16L162.624 276.16L162.624 230.844L162.624 230.844L367.658 230.844L367.658 230.844L367.658 276.16L367.658 276.16Z" fill="#f1e7db" fill-rule="nonzero" opacity="1" stroke="none" vectornator:layerName="rect"/>
<path d="M367.658 247.397L162.624 247.397L162.624 247.397L162.624 235.582L162.624 235.582L367.658 235.582L367.658 235.582L367.658 247.397L367.658 247.397Z" fill="#e6d9ca" fill-rule="nonzero" opacity="1" stroke="none" vectornator:layerName="rect"/>
<path d="M372.113 276.16L158.17 276.16L158.17 276.16L158.17 271.491L158.17 271.491L372.113 271.491L372.113 271.491L372.113 276.16L372.113 276.16Z" fill="#675fa9" fill-rule="nonzero" opacity="1" stroke="none" vectornator:layerName="rect"/>
<path d="M372.113 235.513L158.17 235.513L158.17 235.513L158.17 230.844L158.17 230.844L372.113 230.844L372.113 230.844L372.113 235.513L372.113 235.513Z" fill="#675fa9" fill-rule="nonzero" opacity="1" stroke="none" vectornator:layerName="rect"/>
<path d="M372.113 233.676L158.17 233.676L158.17 233.676L158.17 230.844L158.17 230.844L372.113 230.844L372.113 230.844L372.113 233.676L372.113 233.676Z" fill="#e6e0ec" fill-rule="nonzero" opacity="1" stroke="none" vectornator:layerName="rect"/>
</g>
<g opacity="1" vectornator:layerName="g">
<g opacity="1" vectornator:layerName="g">
<path d="M307.757 89.723L307.757 64.121L231.791 64.121C224.721 64.121 218.99 69.852 218.99 76.922L218.99 76.922C218.99 83.992 224.721 89.723 231.791 89.723L307.757 89.723Z" fill="#e66443" fill-rule="nonzero" opacity="1" stroke="none" vectornator:layerName="path"/>
<path d="M383.532 86.621L383.532 89.723L231.792 89.723C228.603 89.723 225.694 88.55 223.453 86.621L383.532 86.621Z" fill="#e6e9ec" fill-rule="nonzero" opacity="1" stroke="none" vectornator:layerName="path"/>
<path d="M383.532 67.223L383.532 64.121L237.291 64.121L303.609 67.223L383.532 67.223Z" fill="#e6e9ec" fill-rule="nonzero" opacity="1" stroke="none" vectornator:layerName="polygon"/>
</g>
<g opacity="1" vectornator:layerName="path">
<clipPath clip-rule="nonzero" id="ClipPath_21">
<path d="M383.532 89.723L383.532 64.121L299.745 64.121C292.675 64.121 286.944 69.852 286.944 76.922L286.944 76.922C286.944 83.992 292.675 89.723 299.745 89.723L383.532 89.723Z"/>
</clipPath>
<g clip-path="url(#ClipPath_21)">
<path d="M383.532 89.723L383.532 64.121L299.745 64.121C292.675 64.121 286.944 69.852 286.944 76.922L286.944 76.922C286.944 83.992 292.675 89.723 299.745 89.723L383.532 89.723Z" fill="#bd5136" fill-rule="nonzero" opacity="1" stroke="none" vectornator:layerName="path"/>
</g>
</g>
<g opacity="1" vectornator:layerName="g">
<g opacity="1" vectornator:layerName="path">
<clipPath clip-rule="nonzero" id="ClipPath_22">
<path d="M383.559 66.978L300.581 66.978C295.126 66.978 290.704 71.4 290.704 76.855L290.704 76.855C290.704 82.31 295.126 86.732 300.581 86.732L383.559 86.732L383.559 66.978Z"/>
</clipPath>
<g clip-path="url(#ClipPath_22)">
<path d="M290.704 66.978L383.559 66.978L383.559 66.978L383.559 86.732L383.559 86.732L290.704 86.732L290.704 86.732L290.704 66.978L290.704 66.978Z" fill="#f1e7db" fill-rule="nonzero" opacity="1" stroke="none" vectornator:layerName="rect"/>
</g>
</g>
<g opacity="1" vectornator:layerName="path">
<clipPath clip-rule="nonzero" id="ClipPath_23">
<path d="M383.559 66.978L300.581 66.978C295.126 66.978 290.704 71.4 290.704 76.855L290.704 76.855C290.704 82.31 295.126 86.732 300.581 86.732L383.559 86.732L383.559 66.978Z"/>
</clipPath>
<g clip-path="url(#ClipPath_23)">
<path d="M290.704 66.978L383.559 66.978L383.559 66.978L383.559 70.613L383.559 70.613L290.704 70.613L290.704 70.613L290.704 66.978L290.704 66.978Z" fill="#e6d9ca" fill-rule="nonzero" opacity="1" stroke="none" vectornator:layerName="rect"/>
</g>
</g>
<g opacity="1" vectornator:layerName="path">
<clipPath clip-rule="nonzero" id="ClipPath_24">
<path d="M383.559 66.978L300.581 66.978C295.126 66.978 290.704 71.4 290.704 76.855L290.704 76.855C290.704 82.31 295.126 86.732 300.581 86.732L383.559 86.732L383.559 66.978Z"/>
</clipPath>
<g clip-path="url(#ClipPath_24)">
<path d="M291.166 88.782L289.111 88.782L289.111 64.928L291.38 64.928C295.402 72.347 295.49 81.782 291.166 88.782Z" fill="#39354f" fill-rule="nonzero" opacity="1" stroke="none" vectornator:layerName="path"/>
</g>
</g>
</g>
</g>
</g>
<g opacity="1" vectornator:layerName="g">
<g opacity="1" vectornator:layerName="g">
<path d="M126.206 449.085L121.296 449.085L93.76 281.589L98.67 281.589L126.206 449.085Z" fill="#716e80" fill-rule="nonzero" opacity="1" stroke="none" vectornator:layerName="polygon"/>
<path d="M173.08 449.085L168.169 449.085L140.633 281.589L145.544 281.589L173.08 449.085Z" fill="#716e80" fill-rule="nonzero" opacity="1" stroke="none" vectornator:layerName="polygon"/>
<path d="M167.468 414.948L115.684 414.948L114.682 408.856L166.466 408.856L167.468 414.948Z" fill="#716e80" fill-rule="nonzero" opacity="1" stroke="none" vectornator:layerName="polygon"/>
<path d="M160.011 369.592L108.227 369.592L107.226 363.5L159.01 363.5L160.011 369.592Z" fill="#716e80" fill-rule="nonzero" opacity="1" stroke="none" vectornator:layerName="polygon"/>
<path d="M152.555 324.237L100.771 324.237L99.77 318.144L151.553 318.144L152.555 324.237Z" fill="#716e80" fill-rule="nonzero" opacity="1" stroke="none" vectornator:layerName="polygon"/>
<path d="M146.045 284.635L94.261 284.635L92.591 274.48L144.375 274.48L146.045 284.635Z" fill="#716e80" fill-rule="nonzero" opacity="1" stroke="none" vectornator:layerName="polygon"/>
</g>
<g opacity="1" vectornator:layerName="g">
<path d="M100.389 449.085L105.3 449.085L132.836 281.589L127.925 281.589L100.389 449.085Z" fill="#9d9ba7" fill-rule="nonzero" opacity="1" stroke="none" vectornator:layerName="polygon"/>
<path d="M53.516 449.085L58.426 449.085L85.962 281.589L81.052 281.589L53.516 449.085Z" fill="#9d9ba7" fill-rule="nonzero" opacity="1" stroke="none" vectornator:layerName="polygon"/>
<path d="M59.128 414.948L110.912 414.948L111.913 408.856L60.129 408.856L59.128 414.948Z" fill="#9d9ba7" fill-rule="nonzero" opacity="1" stroke="none" vectornator:layerName="polygon"/>
<path d="M66.584 369.592L118.368 369.592L119.37 363.5L67.586 363.5L66.584 369.592Z" fill="#9d9ba7" fill-rule="nonzero" opacity="1" stroke="none" vectornator:layerName="polygon"/>
<path d="M74.04 324.237L125.824 324.237L126.826 318.144L75.042 318.144L74.04 324.237Z" fill="#9d9ba7" fill-rule="nonzero" opacity="1" stroke="none" vectornator:layerName="polygon"/>
<path d="M80.551 284.635L132.335 284.635L134.004 274.48L82.22 274.48L80.551 284.635Z" fill="#716e80" fill-rule="nonzero" opacity="1" stroke="none" vectornator:layerName="polygon"/>
<path d="M81.361 279.558L145.207 279.558L145.207 271.362L81.361 271.362L81.361 279.558Z" fill="url(#LinearGradient)" fill-rule="nonzero" opacity="1" stroke="none" vectornator:layerName="polygon"/>
</g>
</g>
<g opacity="1" vectornator:layerName="g">
<g opacity="1" vectornator:layerName="g">
<path d="M156.971 420.537C158.482 423.584 159.13 428.081 157.751 430.888C156.372 433.695 148.777 432.271 145.129 427.518C141.481 422.764 144.178 419.601 145.594 417.925C147.011 416.248 154.098 414.742 156.971 420.537Z" fill="#73283a" fill-rule="nonzero" opacity="1" stroke="none" vectornator:layerName="path"/>
<path d="M164.623 398.977C161.723 398.055 158.965 396.817 156.24 395.503C155.239 397.214 154.309 398.855 153.511 400.328C148.422 409.725 140.505 427.502 135.759 432.736C132.905 435.883 127.435 442.566 124.737 443.662C122.03 444.768 116.861 445.553 117.865 446.378C119.861 448.019 127.674 446.875 130.381 446.51C133.088 446.145 136.376 447.44 138.267 445.98C140.158 444.508 137.844 442.676 139.904 439.231C144.51 431.528 157.305 419.764 161.86 414.436C165.393 410.303 169.122 404.652 171.683 400.545C169.277 400.219 166.904 399.702 164.623 398.977Z" fill="#eaad96" fill-rule="nonzero" opacity="1" stroke="none" vectornator:layerName="path"/>
<path d="M216.921 354.872C227.981 350.129 237.762 356.198 237.762 363.41C237.762 377.774 217.976 390.037 210.386 390.135C193.063 390.359 182.16 396.621 180.371 397.639C178.582 398.657 157.751 430.888 157.751 430.888C158.025 430.968 153.808 431.083 150.073 428.699C146.375 426.338 143.812 424.871 141.107 422.273C141.107 422.273 161.733 385.594 163.767 381.374C165.801 377.154 175.895 372.508 183.473 369.18C194.666 364.264 209.754 357.946 216.921 354.872Z" fill="#a33953" fill-rule="nonzero" opacity="1" stroke="none" vectornator:layerName="path"/>
</g>
<path d="M234.498 259.153C235.884 260.024 230.342 262.648 229.873 264.474C229.405 266.3 228.242 269.956 226.712 275.493C224.945 281.888 237.412 284.802 229.577 295.173C229.577 295.173 220.321 301.027 216.937 300.841C216.937 300.841 210.161 293.532 218.702 283.454C221.236 280.464 218.702 267.378 223.309 262.019C226.798 257.961 231.218 257.092 234.498 259.153Z" fill="#583834" fill-rule="nonzero" opacity="1" stroke="none" vectornator:layerName="path"/>
<path d="M221.241 297.952C217.413 299.027 212.788 303.016 211.348 307.787C209.908 312.558 207.192 320.846 205.167 326.444C205.167 326.444 202.587 325.21 199.772 323.411C195.976 320.986 193.181 319.104 193.181 319.104C192.217 324.638 189.94 324.165 189.94 324.165C189.94 324.165 196.224 331.313 200.675 335.865C205.714 341.019 210.443 343.944 213.641 336.709C216.84 329.474 218.734 325.76 221.634 317.074C226.423 302.733 221.241 297.952 221.241 297.952Z" fill="#eaad96" fill-rule="nonzero" opacity="1" stroke="none" vectornator:layerName="path"/>
<path d="M223.42 279.766C224.874 290.538 220.872 298.634 221.241 297.952C221.241 297.952 229.579 295.119 232.914 292.193C238.008 287.723 246.894 293.435 246.894 293.435C246.894 293.435 249.24 284.936 247.333 275.358C245.426 265.78 244.651 263.015 239.689 261.265C234.728 259.515 228.669 262.747 228.669 262.747C228.669 262.747 221.576 266.105 223.42 279.766Z" fill="#583834" fill-rule="nonzero" opacity="1" stroke="none" vectornator:layerName="path"/>
<path d="M244.992 298.311C244.992 298.311 240.568 298.003 240.368 293.984C240.244 291.508 241.711 284.159 241.711 284.159L229.904 282.545C229.904 282.545 230.451 292.463 228.951 294.097C228.053 295.074 224.177 296.416 224.177 296.416L219.198 302.926L229.997 316.824L249.612 305.991L244.992 298.311Z" fill="#eaad96" fill-rule="nonzero" opacity="1" stroke="none" vectornator:layerName="path"/>
<path d="M225.219 296.031C230.334 295.844 235.45 294.782 240.379 293.107C240.524 290.115 241.711 284.16 241.711 284.16L229.904 282.546C229.904 282.546 230.451 292.464 228.951 294.098C228.353 294.749 226.434 295.561 225.219 296.031Z" fill="#b89692" fill-rule="nonzero" opacity="0.5" stroke="none" vectornator:layerName="path"/>
<path d="M226.605 266.217C223.759 269.699 224.098 271.639 224.258 276.609C224.396 280.881 224.266 282.951 224.908 284.83C225.556 286.727 227.767 290.388 230.779 292.005C231.382 292.328 232.884 292.523 234.064 292.252C238.05 291.336 244.164 286.993 245.508 284.297C246.493 282.32 247.122 278.708 247.334 275.357C247.542 272.064 247.738 267.792 247.724 265.329C247.674 256.633 231.814 259.845 226.605 266.217Z" fill="#eaad96" fill-rule="nonzero" opacity="1" stroke="none" vectornator:layerName="path"/>
<g opacity="1" vectornator:layerName="g">
<path d="M179.083 420.537C180.494 423.584 183.738 429.239 182.45 432.046C181.162 434.853 170.54 433.792 167.132 429.038C163.724 424.285 165.809 417.831 167.132 416.154C168.455 414.478 176.399 414.742 179.083 420.537Z" fill="#73283a" fill-rule="nonzero" opacity="1" stroke="none" vectornator:layerName="path"/>
<path d="M186.679 395.797C184.256 394.77 181.835 393.75 179.503 392.608C177.959 395.348 176.505 398.038 175.346 400.328C170.592 409.725 161.491 427.502 157.057 432.736C154.391 435.883 149.898 440.821 147.377 441.916C144.848 443.023 139.084 444.175 140.341 446.377C141.605 448.579 149.504 446.874 152.033 446.509C154.562 446.144 157.885 448.551 159.651 447.091C161.418 445.619 159.004 442.676 160.929 439.231C165.232 431.528 178.89 419.764 183.145 414.436C187.017 409.587 191.142 402.649 193.458 398.568C191.19 397.69 188.935 396.754 186.679 395.797Z" fill="#eaad96" fill-rule="nonzero" opacity="1" stroke="none" vectornator:layerName="path"/>
<path d="M246.193 351.217C245.189 363.203 248.485 368.783 248.485 375.996C248.485 390.36 233.143 387.281 226.112 388.204C213.933 389.801 208.736 393.319 207.065 394.336C205.394 395.354 182.449 432.046 182.449 432.046C182.449 432.046 177.031 430.766 174.012 428.082C170.806 425.232 169.173 424.205 163.353 422.984C163.353 422.984 183.027 385.592 184.927 381.372C186.827 377.152 216.982 361.127 223.665 360.185C230.348 359.243 246.193 351.217 246.193 351.217Z" fill="#a33953" fill-rule="nonzero" opacity="1" stroke="none" vectornator:layerName="path"/>
<path d="M163.353 422.985C170.089 410.181 176.887 397.401 183.4 384.481C186.259 378.809 190.977 376.158 196.442 372.955C201.351 370.078 206.496 367.074 211.801 364.568" fill="none" opacity="1" stroke="#73283a" stroke-linecap="butt" stroke-linejoin="miter" stroke-width="0.913" vectornator:layerName="path"/>
</g>
<path d="M257.441 317.404C256.564 322.276 255.243 327.434 254.587 331.112C253.065 339.589 250.985 337.123 249.859 345.865C249.164 351.259 252.344 362.001 252.915 365.954C245.713 370.826 235.502 364.098 231.06 362.267C221.218 358.209 213.355 359.616 209.697 357.946C212.001 355.399 216.527 340.803 215.861 335.465C215.174 329.927 210.112 323.027 211.518 320.416C212.924 317.795 221.241 297.952 221.241 297.952L224.18 296.413C224.18 296.413 220.251 307.182 228.868 309.484C242.368 313.09 249.281 297.952 249.281 297.952C249.281 297.952 253.101 299.684 257.35 301.17C257.35 301.17 258.572 311.052 257.441 317.404Z" fill="#bf5a73" fill-rule="nonzero" opacity="1" stroke="none" vectornator:layerName="path"/>
<path d="M236.02 269.353C238.663 269.659 241.196 269.615 240.852 275.492C240.303 284.872 241.04 287.395 237.094 296.804C234.693 302.531 243.625 305.078 248.766 301.501C249.956 300.673 252.385 299.978 253.528 300.073C259.057 300.536 257.098 293.413 253.301 287.187C249.611 281.135 250.495 276.108 250.495 273.242C250.495 266.678 248.175 261.641 243.338 258.811C238.142 255.772 231.698 256.595 228.199 260.02C227.33 260.871 225.945 261.807 225.862 263.187C225.709 265.748 226.221 268.22 236.02 269.353Z" fill="#583834" fill-rule="nonzero" opacity="1" stroke="none" vectornator:layerName="path"/>
<path d="M189.27 324.58C185.985 321.383 185.991 320.19 185.328 317.497C184.665 314.804 186.063 314.444 186.063 314.444C186.063 314.444 189.192 316.159 191.487 319.512C193.782 322.865 193.081 324.58 193.081 324.58C193.081 324.58 189.27 324.58 189.27 324.58Z" fill="#eaad96" fill-rule="nonzero" opacity="1" stroke="none" vectornator:layerName="path"/>
<g opacity="1" vectornator:layerName="g">
<path d="M195.772 304.19C195.772 304.19 195.651 302.387 197.568 300.451C199.485 298.515 220.279 294.694 220.279 294.694L221.553 300.452L200.458 306.848L195.772 304.19Z" fill="#faebd9" fill-rule="nonzero" opacity="1" stroke="none" vectornator:layerName="path"/>
<path d="M222.357 298.341L229.347 326.949C229.347 326.949 211.577 331.252 206.818 333.457L198.521 303.74L222.357 298.341Z" fill="#4e86d2" fill-rule="nonzero" opacity="1" stroke="none" vectornator:layerName="path"/>
<path d="M195.976 308.344L195.772 304.191C195.772 304.191 195.389 301.005 193.504 299.669C191.619 298.333 184.369 296.066 184.369 296.066L182.563 299.424L195.976 308.344Z" fill="#faebd9" fill-rule="nonzero" opacity="1" stroke="none" vectornator:layerName="path"/>
<path d="M201.153 333.095C201.153 333.095 204.301 335.295 206.818 333.456L198.521 303.739C198.521 303.739 195.435 304.97 192.727 303.37L201.153 333.095Z" fill="#4e86d2" fill-rule="nonzero" opacity="1" stroke="none" vectornator:layerName="path"/>
<path d="M181.821 298.363L192.726 303.37L201.153 333.095L190.545 327.763L181.821 298.363Z" fill="#4e86d2" fill-rule="nonzero" opacity="1" stroke="none" vectornator:layerName="polygon"/>
</g>
<path d="M185.359 310.558C186.671 310.495 188.288 311.436 188.863 312.537C189.438 313.639 188.882 313.739 188.308 313.743C187.734 313.746 187.178 313.847 187.178 313.847C187.178 313.847 188.327 314.946 189.542 315.329C190.757 315.712 191.543 316.374 191.122 317.254C190.702 318.134 190.482 317.973 189.672 317.717C189.672 317.717 190.863 318.507 190.476 319.581C190.09 320.656 188.696 319.802 188.696 319.802C188.696 319.802 190.038 320.363 189.837 321.405C189.636 322.446 188.724 321.606 187.838 321.465C186.952 321.323 185.456 319.886 185.413 319.09C185.37 318.294 185.326 317.498 185.326 317.498C185.326 317.498 185.004 316.752 184.834 315.778C184.664 314.804 184.664 314.804 184.664 314.804L184.923 313.551C184.925 313.55 183.841 310.631 185.359 310.558Z" fill="#eaad96" fill-rule="nonzero" opacity="1" stroke="none" vectornator:layerName="path"/>
<path d="M257.35 301.17C252.254 299.741 250.936 306.847 250.42 314.126C249.951 320.747 248.08 335.465 248.08 335.465C248.08 335.465 236.875 328.082 231.692 323.449C231.196 323.005 230.75 322.623 230.437 322.279C228.992 320.691 227.242 317.306 226.36 313.195C226.318 312.999 226.528 312.281 225.614 311.67C223.497 310.255 223.161 308.671 222.02 307.408C220.794 306.051 219.836 304.786 219.341 305.349C218.847 305.912 219.456 306.746 219.976 307.549C220.496 308.352 221.966 310.732 222.397 311.505C222.828 312.278 222.702 312.512 222.442 312.559C221.778 312.678 221.021 312.16 219.861 311.766C218.701 311.372 215.382 309.478 214.856 310.134C214.33 310.791 214.978 311.395 217.048 312.446C218.229 313.045 220.299 314.97 220.299 314.97C220.299 314.97 219.673 314.509 218.221 313.806C216.769 313.104 215.21 312.161 214.837 313.027C214.577 313.629 216.355 314.534 216.355 314.534C216.355 314.534 215.717 314.649 216.075 315.416C216.4 316.112 217.301 316.08 218.323 317.127C219.044 317.866 220.248 320.592 221.497 321.017C222.746 321.442 223.65 324.882 225.703 325.58C227.224 326.097 237.544 338.008 238.167 338.599C244.054 344.186 250.558 349.102 253.969 345.128C257.381 341.155 260.626 320.427 260.642 311.306C260.653 305.211 259.802 301.858 257.35 301.17Z" fill="#eaad96" fill-rule="nonzero" opacity="1" stroke="none" vectornator:layerName="path"/>
<path d="M139.586 443.894C138.163 445.109 133.638 445.321 130.306 445.582C126.974 445.843 125.378 442.621 125.378 442.621C119.404 444.698 116.162 444.993 114.387 445.981C111.966 447.328 113.879 448.24 117.202 448.64C121.451 449.152 125.452 449.004 128.747 448.596C130.183 448.418 135.864 448.603 136.591 448.629C140.226 448.76 140.667 447.239 139.983 445.126C139.586 443.894 139.586 443.894 139.586 443.894Z" fill="#73283a" fill-rule="nonzero" opacity="1" stroke="none" vectornator:layerName="path"/>
<path d="M160.459 443.19C159.036 444.405 156.201 445.048 153.031 444.781C148.871 444.431 147.378 441.917 147.378 441.917C141.404 443.994 139.596 444.102 137.822 445.09C135.401 446.437 136.842 447.738 140.165 448.138C144.414 448.65 146.326 448.3 149.621 447.892C151.057 447.714 156.738 447.899 157.465 447.925C161.1 448.056 161.541 446.535 160.857 444.422C160.459 443.19 160.459 443.19 160.459 443.19Z" fill="#73283a" fill-rule="nonzero" opacity="1" stroke="none" vectornator:layerName="path"/>
</g>
<g opacity="1" vectornator:layerName="g">
<path d="M383.765 394.906C382.107 395.138 379.974 396.396 379.267 398.617C378.56 400.838 381.782 402.95 382.741 405.777C383.7 408.604 386.221 412.684 389.654 413.693C393.087 414.703 395.32 412.673 394.566 409.033C393.812 405.393 387.974 398.137 387.974 398.137L383.765 394.906Z" fill="#a6abb7" fill-rule="nonzero" opacity="1" stroke="none" vectornator:layerName="path"/>
<path d="M371.722 289.74C371.722 289.74 381.941 301.244 390.072 310.911L385.686 348.797C385.686 348.797 385.036 332.333 372.941 323.795C360.846 315.257 343.507 291.194 343.507 291.194L371.722 289.74Z" fill="#3a3752" fill-rule="nonzero" opacity="1" stroke="none" vectornator:layerName="path"/>
<path d="M369.836 256.562C369.836 256.562 379.355 261.847 381.278 262.43C383.202 263.013 385.47 263.753 388.018 262.43C390.566 261.107 396.202 255.22 397.275 251.52L391.884 248.644L383.454 255.907L373.525 251.016L369.836 256.562Z" fill="#eaad96" fill-rule="nonzero" opacity="1" stroke="none" vectornator:layerName="path"/>
<path d="M353.706 238.139L364.583 233.798C364.583 233.798 367.817 235.487 370.55 240.595C373.283 245.704 378.188 251.065 378.188 251.065L369.227 261.52C369.227 261.52 362.973 255.146 359.942 249.742C356.912 244.336 353.706 238.139 353.706 238.139Z" fill="#667db3" fill-rule="nonzero" opacity="1" stroke="none" vectornator:layerName="path"/>
<path d="M344.231 212.67C344.231 212.67 343.532 218.062 342.959 220.806C342.386 223.549 341.432 224.495 340.764 225.157C340.096 225.819 332.556 230.928 332.556 230.928C332.556 230.928 349.007 261.588 353.752 245.62C355.25 240.578 361.378 232.252 361.378 232.252C361.378 232.252 355.643 227.759 354.788 225.488C353.933 223.217 353.456 216.643 353.456 216.643L344.231 212.67Z" fill="#eaad96" fill-rule="nonzero" opacity="1" stroke="none" vectornator:layerName="path"/>
<path d="M350.745 227.978C351.541 228.558 352.341 229.131 353.153 229.687C354.569 230.654 356.008 231.587 357.469 232.484C358.342 233.02 359.242 233.51 360.131 234.019C360.875 232.94 361.379 232.252 361.379 232.252C361.379 232.252 355.644 227.759 354.789 225.488C353.934 223.217 353.457 216.643 353.457 216.643L344.23 212.67C344.23 212.67 343.531 218.062 342.958 220.806C342.956 220.814 342.954 220.82 342.953 220.827C345.444 223.299 348.037 225.674 350.745 227.978Z" fill="#e6e9ec" fill-rule="nonzero" opacity="1" stroke="none" vectornator:layerName="path"/>
<g opacity="1" vectornator:layerName="g">
<path d="M381.169 303.688C384.512 302.964 391.111 310.433 394.519 319.525C396.96 326.038 395.915 335.056 394.855 347.542C394.135 356.014 391.616 393.956 391.616 393.956L381.752 393.956C381.752 393.956 379.924 372.321 379.221 356.494C378.189 333.266 377.914 329.493 377.914 329.493L355.391 303.689C355.39 303.688 376.017 304.804 381.169 303.688Z" fill="#3a3752" fill-rule="nonzero" opacity="1" stroke="none" vectornator:layerName="path"/>
<path d="M351.267 294.128C359.521 293.797 372.493 290.512 371.722 289.74C370.004 288.021 367.885 269.007 367.828 264.087C367.668 250.227 364.583 233.797 364.583 233.797L356.656 228.021C356.656 228.021 356.301 233.539 350.13 234.037C336.628 235.126 337.148 227.78 337.148 227.78C337.148 227.78 328.807 231.23 325.42 234.02C320.853 237.783 320.539 242.436 323.219 260.636C324.325 268.147 324.161 277.263 324.998 284.163C325.674 289.741 324.554 303.64 328.664 303.306C335.534 300.604 343.633 293.865 351.267 294.128Z" fill="#5c70a1" fill-rule="nonzero" opacity="1" stroke="none" vectornator:layerName="path"/>
<path d="M391.399 393.843L382.363 393.608C382.363 393.608 382.384 394.572 382.107 395.137C381.646 396.078 380.891 397.085 381.747 399.28C382.964 402.404 386.616 410.178 389.539 411.822C391.111 412.706 393.029 412.45 394.194 411.002C395.229 409.717 394.01 406.533 393.296 403.253C392.293 398.644 391.399 393.843 391.399 393.843Z" fill="#3a3752" fill-rule="nonzero" opacity="1" stroke="none" vectornator:layerName="path"/>
</g>
<g opacity="1" vectornator:layerName="g">
<path d="M392.006 248.603C392.006 248.603 392.231 246.847 390.097 244.881C387.964 242.915 369.343 241.119 369.343 241.119L367.596 246.691L386.446 251.014L392.006 248.603Z" fill="#faebd9" fill-rule="nonzero" opacity="1" stroke="none" vectornator:layerName="path"/>
<path d="M366.763 244.598L360.418 271.486C360.418 271.486 378.391 273.758 383.807 276.098L390.93 248.525L366.763 244.598Z" fill="#64704d" fill-rule="nonzero" opacity="1" stroke="none" vectornator:layerName="path"/>
<path d="M391.575 252.651L392.006 248.603C392.006 248.603 390.692 245.669 391.915 243.66C393.139 241.651 399.386 236.413 399.386 236.413L403.045 238.508L391.575 252.651Z" fill="#faebd9" fill-rule="nonzero" opacity="1" stroke="none" vectornator:layerName="path"/>
<path d="M387.708 275.676C387.708 275.676 385.735 277.082 383.807 276.098L390.93 248.525C390.93 248.525 393.969 248.954 395.577 247.922L387.708 275.676Z" fill="#64704d" fill-rule="nonzero" opacity="1" stroke="none" vectornator:layerName="path"/>
<path d="M403.241 237.254L395.576 247.922L387.708 275.676L394.153 269.371L403.241 237.254Z" fill="#64704d" fill-rule="nonzero" opacity="1" stroke="none" vectornator:layerName="polygon"/>
<path d="M384.13 259.923L385.886 251.933L370.128 249.601L368.387 257.663L384.13 259.923Z" fill="#a5bdd1" fill-rule="nonzero" opacity="0.13" stroke="none" vectornator:layerName="polygon"/>
</g>
<path d="M372.852 254.762C372.652 254.762 372.252 254.957 371.755 255.289C371.79 255.202 371.826 255.101 371.86 254.978C372.148 253.941 369.9 255.335 368.438 256.687C366.977 258.039 363.607 259.951 363.607 259.951C362.504 259.962 364.473 255.153 363.977 254.442C363.48 253.731 363.058 254.902 361.77 258.821C361.169 260.648 359.243 262.574 357.244 263.939C356.539 264.421 354.626 264.91 352.292 265.452C351.981 265.519 338.53 268.112 336.766 268.788C336.766 268.788 335.241 260.115 333.538 254.723C328.774 255.262 326.004 257.044 321.23 257.515C321.614 265.252 323.931 271.314 325.421 276.449C326.267 279.362 328.651 281.728 332.557 280.619C334.71 280.008 356.185 270.537 357.678 269.839C360.552 268.496 363.424 267.876 364.317 267.258C365.768 266.255 368.776 263.926 369.835 263.085C370.817 262.305 370.339 261.413 370.264 261.286C370.312 261.273 370.577 260.889 371.305 259.923C371.874 259.169 371.74 257.845 371.74 257.845C372.496 257.005 372.544 256.588 372.852 256.074C373.496 255.001 373.164 254.762 372.852 254.762Z" fill="#eaad96" fill-rule="nonzero" opacity="1" stroke="none" vectornator:layerName="path"/>
<path d="M399.869 249.602C399.638 249.57 399.708 250.428 399.522 250.604C398.154 251.895 395.856 252.905 396.57 253.268C396.867 253.42 397.293 253.692 397.293 253.692C397.293 253.692 396.953 254.434 397.207 254.673C397.461 254.912 397.512 255.144 397.478 255.317C397.444 255.49 396.949 256.603 397.119 256.753C397.288 256.902 397.035 257.647 397.173 257.883C397.311 258.118 397.575 257.981 398.252 257.596C398.928 257.211 399.693 255.896 400.125 254.844C401.025 252.644 400.275 249.658 399.869 249.602Z" fill="#eaad96" fill-rule="nonzero" opacity="1" stroke="none" vectornator:layerName="path"/>
<path d="M336.464 263.17C336.464 263.17 332.21 241.932 331.201 239.751C326.966 230.596 322.526 234.025 319.224 245.425C318.186 249.011 317.594 261.712 320.334 268.499C324.305 269.927 331.201 265.724 336.464 263.17Z" fill="#667db3" fill-rule="nonzero" opacity="1" stroke="none" vectornator:layerName="path"/>
<path d="M371.6 309.702C368.94 304.181 363.338 301.801 356.419 293.984C356.419 293.984 351.579 294.136 343.506 295.065C336.767 295.84 328.356 298.803 328.356 298.803C327.494 302.954 327.833 308.295 332.924 314.308C336.262 318.249 340.738 316.113 349.692 319.676C351.525 321.203 352.682 322.427 352.682 322.427C352.682 322.427 352.845 328.515 349.408 343.637C345.971 358.759 344.275 375.453 344.275 375.453L353.486 373.892C353.486 373.892 361.845 357.609 365.084 350.803C373.43 333.265 374.063 326.386 374.939 321.405C375.736 316.889 374.001 312.911 371.6 309.702Z" fill="#3a3752" fill-rule="nonzero" opacity="1" stroke="none" vectornator:layerName="path"/>
<path d="M365.086 350.802C373.432 333.264 374.065 326.385 374.941 321.404C375.735 316.888 373.475 309.597 362.051 299.607" fill="none" opacity="1" stroke="#242430" stroke-linecap="butt" stroke-linejoin="miter" stroke-width="0.8561" vectornator:layerName="path"/>
<path d="M365.799 207.36C365.677 210.329 364.315 216.952 363.288 219.6C361.865 223.267 359.338 226.032 356.416 226.978C353.494 227.924 349.166 224.324 347.304 221.528C345.442 218.732 345.884 215.153 345.895 211.775C345.906 208.397 347.283 205.01 347.283 205.01C347.283 205.01 347.068 199.392 350.225 197.791C362.325 191.658 365.921 204.392 365.799 207.36Z" fill="#eaad96" fill-rule="nonzero" opacity="1" stroke="none" vectornator:layerName="path"/>
<path d="M368.273 204.665C364.781 204.796 359.908 206.667 355.822 205.249C353.123 204.312 350.457 202.596 350.457 202.596C349.879 204.703 351.123 205.05 350.892 206.886C350.662 208.722 348.034 209.897 348.034 209.897C348.034 209.897 347.281 212.647 346.409 213.337C345.537 214.027 343.449 219.861 343.449 219.861C343.449 219.861 341.58 214.247 341.471 213.356C341.362 212.464 338.837 210.493 337.836 207.535C336.835 204.577 338.657 193.006 345.856 193.686C345.856 193.686 353.627 188.402 362.827 195.87C366.36 198.737 368.273 204.665 368.273 204.665Z" fill="#372b2c" fill-rule="nonzero" opacity="1" stroke="none" vectornator:layerName="path"/>
<path d="M347.896 210.585C348.057 209.225 348.787 205.834 345.746 205.292C342.704 204.75 342.896 209.477 343.816 210.653C344.737 211.828 345.812 214.269 345.812 214.269C345.812 214.269 347.654 212.624 347.896 210.585Z" fill="#eaad96" fill-rule="nonzero" opacity="1" stroke="none" vectornator:layerName="path"/>
<path d="M353.95 373.147C352.485 372.13 349.381 371.615 347.582 372.049C345.783 372.483 344.195 371.812 344.195 371.812C344.195 371.812 342.203 375.281 342.532 376.481C343.191 378.885 346.89 384.735 350.855 387.939C354.105 390.565 357.64 391.041 358.932 389.542C360.653 387.547 353.95 373.147 353.95 373.147Z" fill="#3a3752" fill-rule="nonzero" opacity="1" stroke="none" vectornator:layerName="path"/>
<path d="M357.224 391.158C355.044 391.491 353.472 391.306 350.856 389.934C347.836 388.35 342.116 380.749 341.502 378.659C341.278 377.896 342.269 376.373 342.506 375.615C342.871 374.45 347.045 384.583 351.239 387.582C352.825 388.716 357.289 390.468 358.934 389.542C358.933 389.542 358.426 390.974 357.224 391.158Z" fill="#a6abb7" fill-rule="nonzero" opacity="1" stroke="none" vectornator:layerName="path"/>
</g>
<g opacity="1" vectornator:layerName="g">
<g opacity="1" vectornator:layerName="g">
<path d="M127.51 219.048C125.159 219.068 124.255 216.653 121.846 216.472C121.02 221.488 118.717 227.793 117.886 230.011C116.295 234.261 112.452 235.104 110.154 237.069C109.383 237.731 108.423 238.503 107.559 239.309C110.933 239.243 116.304 239.575 119.603 238.786C122.701 238.045 123.755 235.768 126.864 235.031C126.647 234.035 126.291 232.784 126.042 230.941C125.611 227.744 126.328 223.532 127.51 219.048Z" fill="#eaad96" fill-rule="nonzero" opacity="1" stroke="none" vectornator:layerName="path"/>
<path d="M126.819 233.783C125.496 235.36 121.623 237.521 118.135 237.808C113.557 238.184 112.126 235.504 112.126 235.504C108.819 238.251 104.315 239.169 102.611 240.886C100.464 243.049 102.029 243.937 105.708 243.768C110.412 243.551 112.423 242.824 115.925 241.782C117.451 241.328 122.772 240.525 123.566 240.421C127.534 239.903 128.613 238.143 127.487 235.973C126.83 234.709 126.819 233.783 126.819 233.783Z" fill="#614630" fill-rule="nonzero" opacity="1" stroke="none" vectornator:layerName="path"/>
</g>
<path d="M200.149 135.997L177.379 131.631C177.379 131.631 175.456 140.865 172.873 142.922C171.006 144.409 157.241 149.387 152.095 150.872C147.556 152.182 137.187 155.748 134.642 158.115C132.76 159.867 130.312 162.793 128.544 171.058C126.598 180.155 119.603 225.024 119.603 225.024C119.603 225.024 121.342 228.274 125.965 227.491C125.965 227.491 131.053 213.297 140.021 194.911C143.381 188.024 146.659 175.168 146.659 175.168C146.659 175.168 160.165 173.125 173.457 172.402C185.5 171.747 195.043 172.881 198.858 170.502C211.418 162.668 200.149 143.268 200.149 135.997Z" fill="#8f6d52" fill-rule="nonzero" opacity="1" stroke="none" vectornator:layerName="path"/>
<path d="M154.182 239.021C150.707 231.208 152.973 214.29 152.68 205.086L141.864 205.21C143.633 216.729 146.528 234.55 146.093 240.416C145.758 244.942 145.662 250.397 144.963 253.339C144.27 256.296 142.767 261.055 145.535 261.401C148.308 261.74 152.017 253.66 153.363 251.192C154.709 248.725 159.021 247.386 158.9 244.867C158.77 242.341 155.947 242.988 154.182 239.021Z" fill="#eaad96" fill-rule="nonzero" opacity="1" stroke="none" vectornator:layerName="path"/>
<path d="M155.349 240.921C155.481 242.976 154.171 247.213 151.845 249.828C148.792 253.261 144.785 252.151 144.785 252.151C144.288 256.421 142.786 260.354 142.738 262.772C142.678 265.82 144.423 265.381 146.968 262.719C150.221 259.315 151.175 257.4 152.989 254.229C153.78 252.847 157.075 248.593 157.578 247.969C160.091 244.854 159.656 242.837 157.345 242.045C155.997 241.583 155.349 240.921 155.349 240.921Z" fill="#614630" fill-rule="nonzero" opacity="1" stroke="none" vectornator:layerName="path"/>
<path d="M170.605 99.451C168.545 108.357 167.054 114.927 167.054 114.927C165.113 114.183 150.314 111.33 149.971 111.256C149.767 111.209 149.572 111.162 149.374 111.116C148.548 113.21 147.756 115.315 147.016 117.437C152.72 120.018 164.502 125.288 166.371 125.819C170.668 127.039 174.326 124.352 175.256 121.148C176.896 115.499 178.352 107.587 179.997 100.878L170.605 99.451Z" fill="#eaad96" fill-rule="nonzero" opacity="1" stroke="none" vectornator:layerName="path"/>
<path d="M200.15 142.008L185.173 132.417L172.873 145.661C172.873 145.661 144.928 155.035 142.384 157.403C139.664 159.934 136.353 162.016 137.198 176.552C137.94 189.318 144.624 230.968 144.624 230.968C146.121 232.399 152.736 234.072 152.845 232.003C153.953 210.978 155.049 202.887 155.299 188.883C155.466 179.506 155.638 173.837 155.638 173.837C155.638 173.837 193.796 173.063 199.314 165.584C205.414 157.313 200.15 149.279 200.15 142.008Z" fill="#8f6d52" fill-rule="nonzero" opacity="1" stroke="none" vectornator:layerName="path"/>
<path d="M172.873 145.661C172.873 145.661 144.928 155.035 142.384 157.403C139.664 159.934 136.353 162.016 137.198 176.552C137.558 182.75 139.319 195.755 141.035 207.498" fill="none" opacity="1" stroke="#785c45" stroke-linecap="butt" stroke-linejoin="miter" stroke-width="1.0604" vectornator:layerName="path"/>
<path d="M183.829 90.245C182.853 93.562 174.149 89.446 169.039 83.252C163.929 77.058 160.226 66.502 165.326 59.044C170.426 51.585 177.247 66.03 179.569 73.712C181.891 81.394 183.829 90.245 183.829 90.245Z" fill="#372b2c" fill-rule="nonzero" opacity="1" stroke="none" vectornator:layerName="path"/>
<path d="M174.757 109.201C175.692 109.389 176.622 109.537 177.552 109.682C177.575 109.485 177.606 109.27 177.626 109.082C178.308 102.492 183.906 83.954 178.178 87.211C174.376 89.372 171.385 92.264 168.992 103.856C168.707 105.238 168.54 106.553 168.434 107.815C170.287 108.689 173.538 108.956 174.757 109.201Z" fill="#64704d" fill-rule="nonzero" opacity="1" stroke="none" vectornator:layerName="path"/>
<g opacity="1" vectornator:layerName="g">
<path d="M180.504 87.006C181.154 85.548 182.511 85.294 180.656 82.181L189.071 78.816C189.071 78.816 190.895 82.431 193.551 85.069C196.206 87.707 190.121 108.511 184.816 110.203C179.511 111.895 176.6 105.35 176.6 105.35C176.6 105.35 176.828 100.36 176.767 98.99C176.596 95.182 180.504 87.006 180.504 87.006Z" fill="#eaad96" fill-rule="nonzero" opacity="1" stroke="none" vectornator:layerName="path"/>
<path d="M195.056 85.312C195.056 85.312 191.195 86.916 187.85 90.684C184.504 94.451 179.837 99.117 178.567 98.626C177.297 98.135 179.831 88.11 181.115 85.998L178.178 87.211C178.178 87.211 175.522 96.294 173.836 99.24C172.15 102.187 169.576 106.266 169.834 110.12C170.091 113.973 172.794 119.375 172.536 122.69C172.279 126.005 171.667 140.618 171.667 140.618C171.667 140.618 176.753 142.305 185.397 142.185C194.779 142.054 198.046 141.504 203.907 137.532C202.285 133.147 201.054 133.17 200.719 121.896C200.539 115.856 201.62 110.29 202.907 103.661C204.194 97.031 205.819 93.306 203.374 89.991C200.928 86.674 195.056 85.312 195.056 85.312Z" fill="#64704d" fill-rule="nonzero" opacity="1" stroke="none" vectornator:layerName="path"/>
<path d="M188.09 74.827C185.242 70.203 185.313 67.559 185.338 67.208C185.34 67.187 185.341 67.164 185.341 67.164L183.933 57.681C183.933 57.681 180.71 53.378 175.189 55.361C169.668 57.344 167.431 59.09 166.662 61.468C166.014 63.47 166.426 65.967 166.721 67.086C167.016 68.205 167.894 69.109 167.573 70.319C167.252 71.53 165.548 73.979 165.516 74.63C165.483 75.281 167.511 75.884 167.82 76.226C168.129 76.568 169.931 79.601 170.807 81.151C171.683 82.701 174.874 81.132 177.539 80.781C179.885 80.471 183.41 85.084 184.329 87.791L196.214 86.026C196.215 86.026 191.155 79.802 188.09 74.827Z" fill="#eaad96" fill-rule="nonzero" opacity="1" stroke="none" vectornator:layerName="path"/>
</g>
<path d="M184.33 87.791C184.277 79.81 185.454 72.074 180.866 68.915C179.626 68.061 175.41 67.473 173.842 67.165C165.325 65.491 165.325 59.045 165.325 59.045C165.325 59.045 170.449 52.637 177.675 50.986C184.901 49.334 191.941 54.592 195.757 65.576C198.65 73.902 208.141 79.787 211.297 85.314C217.683 96.496 208.733 110.484 201.126 108.849C192.38 106.969 201.346 96.928 198.702 89.725C198.254 88.506 192.342 91.517 189.246 92.541C185.997 93.615 184.342 89.595 184.33 87.791Z" fill="#372b2c" fill-rule="nonzero" opacity="1" stroke="none" vectornator:layerName="path"/>
<path d="M134.119 102.487C134.119 102.487 133.173 94.883 136.626 91.773L140.582 93.07L146.34 112.936L140.687 116.831L134.119 102.487Z" fill="#faebd9" fill-rule="nonzero" opacity="1" stroke="none" vectornator:layerName="path"/>
<path d="M137.845 104.837C137.845 104.837 134.237 102.115 136.828 98.833C138.863 96.254 158.24 94.634 158.24 94.634L169.811 125.708L164.858 128.1L154.491 127.52L137.845 104.837Z" fill="#faebd9" fill-rule="nonzero" opacity="1" stroke="none" vectornator:layerName="path"/>
<path d="M155.721 99.451L166.052 129.049C166.052 129.049 156.964 130.926 148.335 132.202L138.138 102.662L155.721 99.451Z" fill="#675fa9" fill-rule="nonzero" opacity="1" stroke="none" vectornator:layerName="path"/>
<path d="M144.19 131.803C144.19 131.803 145.278 132.856 148.335 132.202L138.138 102.662C138.138 102.662 136.007 103.31 134.118 102.486L144.19 131.803Z" fill="#675fa9" fill-rule="nonzero" opacity="1" stroke="none" vectornator:layerName="path"/>
<path d="M147.259 128.101L140.244 106.726L154.014 103.846L160.811 125.615L147.259 128.101Z" fill="#a5bdd1" fill-rule="nonzero" opacity="0.13" stroke="none" vectornator:layerName="polygon"/>
<path d="M151.258 110.791C151.478 110.791 151.918 111.006 152.465 111.371C152.426 111.275 152.387 111.164 152.35 111.029C152.033 109.888 154.507 111.422 156.115 112.909C157.723 114.396 160.668 116.054 160.668 116.054C161.881 116.066 159.414 113.283 159.961 112.501C160.508 111.718 162.281 113.365 163.452 115.256C164.565 117.055 166.232 119.385 168.432 120.887C169.208 121.417 171.313 121.955 173.88 122.551C174.223 122.624 189.022 125.478 190.963 126.222C190.963 126.222 193.329 115.148 195.388 106.242L204.781 107.668C203.135 114.377 200.805 126.793 199.165 132.442C198.235 135.647 194.577 138.334 190.28 137.113C187.911 136.44 169.596 128.145 167.953 127.377C164.791 125.899 161.631 125.217 160.648 124.538C159.051 123.434 155.742 120.871 154.577 119.947C153.496 119.089 154.022 118.107 154.105 117.968C154.052 117.954 153.761 117.531 152.96 116.469C152.334 115.639 152.481 114.183 152.481 114.183C151.65 113.259 151.597 112.8 151.258 112.234C150.549 111.054 150.914 110.791 151.258 110.791Z" fill="#eaad96" fill-rule="nonzero" opacity="1" stroke="none" vectornator:layerName="path"/>
<path d="M135.336 104.034C135.336 104.034 133.873 95.362 137.358 91.947L136.626 91.772C136.626 91.772 132.914 94.626 134.119 102.486L135.336 104.034Z" fill="#675fa9" fill-rule="nonzero" opacity="1" stroke="none" vectornator:layerName="path"/>
<path d="M205.554 111.024C206.185 105.137 206.111 99.811 205.829 96.894C204.998 88.281 194.449 87.655 192.631 93.791C191.61 97.236 191.953 103.173 192.96 111.966C197.034 111.04 201.289 110.807 205.554 111.024Z" fill="#64704d" fill-rule="nonzero" opacity="1" stroke="none" vectornator:layerName="path"/>
</g>
</g>
</svg>
